<svg xmlns="http://www.w3.org/2000/svg" width="425.869" height="500.717" viewBox="0 0 425.869 500.717">
  <g id="Group_6973" data-name="Group 6973" transform="translate(-8807.711 -3273.525)">
    <path id="Path_9109" data-name="Path 9109" d="M2915.32,183.73a270.938,270.938,0,0,1,22.28,43.581c7.24,18.417,10.53,37.717,11.73,57.291,1.99,32.983-4.69,64.309-19.32,93.851-12.5,25.44-28.39,48.416-48.96,67.993-11.57,11.03-23.87,21.107-37.75,29.107a143.431,143.431,0,0,1-40.1,16.229c-9.22,2.135-18.52,2.66-27.83.577a47.11,47.11,0,0,1-11.84-4.507c-7.89-4.308-12.23-11.031-13.84-19.626a45.9,45.9,0,0,1,.18-15.947,105.623,105.623,0,0,1,9.92-30.195c4.2-8.064,8.67-16.068,12.74-24.161,7.97-15.5,15.81-31.022,23.53-46.715a217.266,217.266,0,0,0,10.23-25.281,152.3,152.3,0,0,0,7.69-56.719,110.446,110.446,0,0,0-12.9-45.825c-11.11-21.277-27.11-37.608-47.65-49.708a98.18,98.18,0,0,0-10.24-5.176,218.349,218.349,0,0,0-67.42-17.083c-20.14-1.886-40.04-1.189-60.07.782-15.66,1.538-31.41,2.769-47.02,4.03a138.382,138.382,0,0,1-20.33.025,9.948,9.948,0,0,1-5.14-1.687c-2.52-1.7-5.05-3.4-7.66-5.053a18.307,18.307,0,0,1-7.23-9.375c-4.64-12.358-4.9-24.927.01-37.252,5.42-13.731,14.11-25.167,24.75-35.241,18.82-17.855,41.36-28.11,67.04-31.465a192.606,192.606,0,0,1,63.43,2.4c17.48,3.483,34.43,8.732,51.35,14.121a482.651,482.651,0,0,1,62.76,24.612,272.815,272.815,0,0,1,80.55,59.194A325.743,325.743,0,0,1,2915.32,183.73Z" transform="translate(6282.967 3260)" fill="#9ca898"/>
    <g id="Group_6972" data-name="Group 6972" transform="translate(6282.967 3260)">
      <path id="Path_9110" data-name="Path 9110" d="M2704.22,306.926a8.5,8.5,0,0,1,.08,1.387c-.75,15,2.3,29.408,6.76,43.6,5.4,17.411,12.46,34.079,20.08,50.5,5.73,12.281,11.86,24.286,18.39,36.154,6.12,11.062,12.48,21.959,19.65,32.442,6.59,9.788,14.27,18.5,23.92,25.3,19.84,13.86,41.16,16.189,63.6,7.344,19.78-7.8,34.59-21.667,45.17-39.932,14.35-24.712,17.22-51.188,10.51-78.755a106.746,106.746,0,0,0-9.12-23.943c-.22-.333-.44-.667-.83-1.251-.89.829-1.78,1.657-2.58,2.431-16.65,15.8-35.39,28.07-57.08,35.7-14.69,5.157-29.76,7.568-45.32,5.983-14.27-1.47-27.4-6.1-38.74-15.265-8.85-7.217-15.25-16.173-17.62-27.553-2.91-13.657.63-26.069,8.99-36.992,2.76-3.623,6.16-6.827,9.33-10.365-.13-.028-.61-.2-1.02-.281-8.96-.673-14.79-5.327-17.59-13.908a37.493,37.493,0,0,1-1.58-12.736,68.257,68.257,0,0,1,3.87-19.705c4.97-14.431,12.75-27.132,22.37-38.882a166.51,166.51,0,0,1,49.33-41.247,140.5,140.5,0,0,1,28.31-11.762,13.853,13.853,0,0,1,2.22-.629,1.53,1.53,0,0,0,.22-.748c1.93-16.856,1.57-33.526-2.86-50.018a77.619,77.619,0,0,0-13.76-28.065c-12.33-15.579-28.45-23.268-48.3-23.206a65.236,65.236,0,0,0-18.24,2.7,8.775,8.775,0,0,0-1.64.6,6.2,6.2,0,0,0,.11,1.249c4.03,20.234,4.03,40.731,1.68,61.107a221.392,221.392,0,0,1-15.77,60.652c-4.42,10.356-9.84,20.292-17.03,29a59.57,59.57,0,0,1-15.69,13.613,29.836,29.836,0,0,1-9.83,3.623c-8.88,1.436-16.03-1.753-21.63-8.6-4.17-5.036-6.5-10.924-8.26-17.2-2.92-11.494-3.07-23.143-1.55-34.814,2.6-19.821,9.57-38.1,19.51-55.34a142.917,142.917,0,0,1,28.85-35.612,105.623,105.623,0,0,1,31.63-19.6c.78-.274,1.42-.577,2.28-.906-.08-.666-.19-1.193-.3-1.721-2.57-10.05-6.38-19.633-12.45-28.088-13.63-18.8-32.1-27.332-55.21-25.118-12.29,1.173-23.27,6.151-33.33,13.046a106.9,106.9,0,0,0-20.96,19.251,10.963,10.963,0,0,0-1.28,1.687c1.81,3.113,3.66,6.088,5.42,9.118a150.4,150.4,0,0,1,15.58,39.333c4.94,20.349,6.53,40.879,3.51,61.7a95.841,95.841,0,0,1-8.91,29.5c-3.07,5.868-6.78,11.318-12.07,15.291a29.878,29.878,0,0,1-6.81,4.024c-7.94,3.214-16,.992-22.14-5.743-4.61-4.983-7.36-10.956-9.53-17.316a9.235,9.235,0,0,0-2.59-3.921,124.262,124.262,0,0,1-24.67-32.6,144.57,144.57,0,0,1-17.27-66.381,103.222,103.222,0,0,1,4.37-32.739c2.36-7.674,5.71-14.927,11.2-20.952,7.99-8.761,17.68-11.692,29.13-8.347,7.56,2.192,13.95,6.6,19.81,11.836a85.166,85.166,0,0,1,10.8,11.8c.58.7,1.1,1.308,1.79,2.17.73-.718,1.28-1.326,1.92-1.99a112.287,112.287,0,0,1,23.44-20.767c11.31-7.362,23.62-12.14,37.27-12.532,25.24-.624,44.28,10.4,57.45,31.783a88.341,88.341,0,0,1,9.73,23.418c.19.833.52,1.694.82,2.693.92-.246,1.75-.437,2.58-.628,13.25-3.36,26.45-3.7,39.47.4,15.54,4.83,27.1,14.693,35.56,28.4,8.43,13.484,12.26,28.337,13.67,44.069a151.709,151.709,0,0,1-.22,26.874c-.03.86-.14,1.775-.2,2.773,1.05-.218,1.94-.325,2.78-.516,11.24-2.037,22.55-2.687,33.89-.591,30.32,5.608,50.25,23.241,59.32,52.73,4.46,14.551,4.82,29.418,2.9,44.471-2.88,22.288-11.28,42.586-23.47,61.316a180.549,180.549,0,0,1-18.57,23.781c-.39.5-.83.912-1.39,1.52,1.38,2.806,2.84,5.558,4.07,8.336,17.44,37.62,14.3,84.536-15.87,118.868-11.28,12.853-24.94,22.48-41.41,27.493-25.24,7.7-48.02,2.616-68.23-14.352a92.165,92.165,0,0,1-17.2-19.314c-6.81-10.122-13.09-20.713-18.99-31.442a508.833,508.833,0,0,1-23.78-48.656c-7.25-17.14-13.76-34.416-18.07-52.544-2.7-11.521-4.16-23.147-3.11-34.986.03-.5.09-1.137.12-1.636C2703.72,307.617,2703.8,307.562,2704.22,306.926Zm85.56-7.659c1.2-.19,1.92-.187,2.53-.351a91.208,91.208,0,0,1,27.46-1.254c19.05,2.154,36.16,9.181,51.73,20.224a118.2,118.2,0,0,1,30.45,31.541c.44.667,1.02,1.363,1.57,2.2.64-.663,1.17-1.133,1.61-1.547,3.49-4.341,7.3-8.542,10.59-12.995,13.78-18.7,23.48-39.377,27.53-62.437,2.58-14.412,2.81-28.945-.47-43.324-2.81-12.409-8.03-23.578-16.57-33.041-9.36-10.354-20.96-16.833-34.42-20.157-13.61-3.353-27.28-2.823-40.86.037a2.812,2.812,0,0,0-.8.413,1.951,1.951,0,0,0-.25.526c-.09.416-.2.97-.29,1.386a225.544,225.544,0,0,1-27.03,76.972,166.684,166.684,0,0,1-26.71,36.12C2793.99,295.289,2792.04,297.057,2789.78,299.267Zm110.29,56.2a16.875,16.875,0,0,0-1.63-2.641c-2.93-4.061-5.82-8.26-9-12.155a107.637,107.637,0,0,0-51.01-34.366c-22.1-6.963-43.82-6.991-65,3.772-9.5,4.845-17.26,11.416-22.93,20.436-9.54,15.3-8.5,32.834,2.68,47.022a56.675,56.675,0,0,0,21.73,16.558,75.681,75.681,0,0,0,31.99,6.308c18.16-.263,35.05-5.551,51.22-13.727a154.005,154.005,0,0,0,34.32-23.887C2894.94,360.411,2897.39,357.952,2900.07,355.466ZM2756.19,77.284a17.868,17.868,0,0,0-1.83.492A97.087,97.087,0,0,0,2730.45,91.3a125.8,125.8,0,0,0-25.25,25.808c-15.28,20.77-25.21,43.641-28.5,69.312a89.109,89.109,0,0,0,.77,29.1,46.509,46.509,0,0,0,6.84,17.055c5.69,8.232,13.94,10.926,23.3,7.495a41.346,41.346,0,0,0,15.16-10.62c7.15-7.488,12.4-16.233,16.82-25.507a196.265,196.265,0,0,0,15.1-47.147c4.3-22.144,5.78-44.576,3.23-67.107C2757.6,85.582,2756.84,81.53,2756.19,77.284Zm88.3,102.377c-.83.191-1.58.327-2.19.491a133.321,133.321,0,0,0-25.7,10.634,158.74,158.74,0,0,0-48.33,40.586c-8.92,11.17-16.37,23.29-21.08,36.834a63.447,63.447,0,0,0-3.85,20.648,27.61,27.61,0,0,0,1.71,10.38c2.55,6.943,8.08,10.6,15.41,10.071a27.286,27.286,0,0,0,7.02-1.526,56.576,56.576,0,0,0,16.34-9.367,108.9,108.9,0,0,0,18.47-19.039c22.19-29.175,35.87-61.961,42.06-97.938C2844.43,181.02,2844.41,180.437,2844.49,179.661Zm-242.34,11.688c2.45,6.056,5.65,11.615,11.51,15.049,4.57,2.736,9.37,2.56,14.01.332a28.168,28.168,0,0,0,4.28-2.591,37.42,37.42,0,0,0,9.81-11.639,80.432,80.432,0,0,0,8.52-23.376,143.068,143.068,0,0,0,1.7-45.84c-2.42-21.06-8.16-41-18.52-59.563-1.54-2.7-3.17-5.337-4.8-7.978a3.232,3.232,0,0,1-.64.3,24.387,24.387,0,0,0-1.86,2.433,165.353,165.353,0,0,0-30.91,96.677,101.268,101.268,0,0,0,3.99,28.888,6.713,6.713,0,0,0,2.32,3.5c2.49,1.951,4.95,4.041,7.41,6.131.5.39.77.807,1.27,1.2C2606.99,194.863,2604.92,192.636,2602.15,191.349Zm24.08-138.916c-.27-.417-.41-.806-.63-1.139-5.66-7.649-12.04-14.579-19.92-19.8a36.326,36.326,0,0,0-13.85-5.711,22.462,22.462,0,0,0-19.52,5.833,39.78,39.78,0,0,0-9.28,12.972,72.187,72.187,0,0,0-6.21,21.61c-2.51,17.242-1.08,34.277,3.13,51.156,5.6,22.432,15.64,42.523,31.03,59.806.88.974,1.76,1.948,2.73,2.867-4.38-22.76-2.79-45.025,3-67.08A166.24,166.24,0,0,1,2626.23,52.433Z"/>
    </g>
  </g>
</svg>
