<svg xmlns="http://www.w3.org/2000/svg" width="1270.46" height="233.25" viewBox="0 0 1270.46 233.25">
  <g id="Group_4199" data-name="Group 4199" transform="translate(4172 -372)">
    <g id="Group_4197" data-name="Group 4197" transform="translate(-4172 372)">
      <path id="Path_3784" data-name="Path 3784" d="M80.29,159.89v35.36a11.064,11.064,0,0,1-11.06,11.06H38a11.064,11.064,0,0,1-11.06-11.06V101.92A11.064,11.064,0,0,1,38,90.86h84.58a11.064,11.064,0,0,1,11.06,11.06v27.44a11.064,11.064,0,0,1-11.06,11.06H99.75a19.457,19.457,0,0,0-19.46,19.46Z" fill="#5f6f5b"/>
      <path id="Path_3785" data-name="Path 3785" d="M193.49,156.74h-88.8A11.058,11.058,0,0,0,93.63,167.8v27.45a11.058,11.058,0,0,0,11.06,11.06h88.8a11.066,11.066,0,0,0,11.07-11.06V167.8a11.06,11.06,0,0,0-11.07-11.06Zm-33.66,34.29H138.35v-7.15h21.48Zm0-11.85H138.35v-7.15h21.48Z" fill="#5f6f5b"/>
      <path id="Path_3786" data-name="Path 3786" d="M193.49,90.86H162.26a11.075,11.075,0,0,0-11.07,11.07v27.44a11.075,11.075,0,0,0,11.07,11.07h31.23a11.068,11.068,0,0,0,11.07-11.07V101.93a11.068,11.068,0,0,0-11.07-11.07Zm-3.91,30.65-5.84,5.84-5.86-5.86-5.86,5.86-5.85-5.84,5.86-5.86-5.86-5.86,5.85-5.85,5.86,5.86,5.86-5.86,5.84,5.85-5.86,5.86,5.86,5.86Z" fill="#5f6f5b"/>
      <path id="Path_3787" data-name="Path 3787" d="M193.49,26.93H38A11.068,11.068,0,0,0,26.93,38V65.44A11.066,11.066,0,0,0,38,76.5H193.49a11.066,11.066,0,0,0,11.07-11.06V38a11.068,11.068,0,0,0-11.07-11.07ZM69.59,55.29H62.42v7.17H55.27V55.29H48.11V48.13h7.16V40.97h7.15v7.16h7.17Zm112.56,0H160.67V48.13h21.48Z" fill="#5f6f5b"/>
      <path id="Path_3788" data-name="Path 3788" d="M193.19,10.54a27.8,27.8,0,0,1,27.77,27.77V194.94a27.8,27.8,0,0,1-27.77,27.77H38.31a27.8,27.8,0,0,1-27.77-27.77V38.31A27.8,27.8,0,0,1,38.31,10.54H193.19m0-10.54H38.31A38.346,38.346,0,0,0,0,38.31V194.94a38.352,38.352,0,0,0,38.31,38.31H193.19a38.352,38.352,0,0,0,38.31-38.31V38.31A38.352,38.352,0,0,0,193.19,0Z" fill="#deb47d"/>
    </g>
    <g id="Group_4198" data-name="Group 4198" transform="translate(-4172 372)">
      <path id="Path_3789" data-name="Path 3789" d="M289.17,70.28a33.613,33.613,0,0,1,8.15.82,39.177,39.177,0,0,1,5.46,1.76l-3.05,13.73a16.349,16.349,0,0,0-4.17-1.17,31.072,31.072,0,0,0-4.63-.35,14.208,14.208,0,0,0-5.34.88,8.212,8.212,0,0,0-3.4,2.41A9.3,9.3,0,0,0,280.43,92a18.932,18.932,0,0,0-.53,4.58v3.05h21.59v14.55H279.9v47.16H262.42V96.33q0-11.97,6.75-19.01t20-7.04Zm41.53,11.5a9.608,9.608,0,0,1-3.11,7.57,11.113,11.113,0,0,1-14.66,0,9.608,9.608,0,0,1-3.11-7.57,9.608,9.608,0,0,1,3.11-7.57,11.113,11.113,0,0,1,14.66,0A9.608,9.608,0,0,1,330.7,81.78Zm-1.64,79.55H311.58V99.62h17.48Z" fill="#5f6f5b"/>
      <path id="Path_3790" data-name="Path 3790" d="M345.49,101.72a98.458,98.458,0,0,1,11.5-2.41,94.82,94.82,0,0,1,14.78-1.11,36.493,36.493,0,0,1,13.08,2.05,19.666,19.666,0,0,1,8.27,5.81,22.675,22.675,0,0,1,4.34,8.92,47.435,47.435,0,0,1,1.29,11.5v34.85H381.27V128.6q0-8.445-2.23-11.97c-1.49-2.35-4.26-3.52-8.33-3.52q-1.875,0-3.99.18c-1.41.12-2.66.26-3.75.41v47.63H345.49v-59.6Z" fill="#5f6f5b"/>
      <path id="Path_3791" data-name="Path 3791" d="M436.76,97.97a40.65,40.65,0,0,1,12.91,1.76,20,20,0,0,1,8.27,5.05,18.566,18.566,0,0,1,4.4,7.98,39.375,39.375,0,0,1,1.29,10.44v36.37q-3.75.825-10.44,1.94A100.8,100.8,0,0,1,437,162.62a50.855,50.855,0,0,1-10.85-1.06,23.546,23.546,0,0,1-8.39-3.46,15.8,15.8,0,0,1-5.4-6.28,21.679,21.679,0,0,1-1.88-9.5,17.582,17.582,0,0,1,2.17-9.15,16.657,16.657,0,0,1,5.81-5.98,26.222,26.222,0,0,1,8.33-3.23,47.04,47.04,0,0,1,9.74-1,56.713,56.713,0,0,1,6.04.29,27.64,27.64,0,0,1,4.28.76v-1.64a9.683,9.683,0,0,0-2.7-7.16q-2.7-2.7-9.39-2.7a59.783,59.783,0,0,0-8.8.65,37.931,37.931,0,0,0-7.51,1.82l-2.23-14.08c1.02-.31,2.29-.65,3.81-1s3.19-.66,4.99-.94,3.7-.51,5.69-.7,4.01-.29,6.04-.29Zm1.41,51.15c1.72,0,3.36-.04,4.93-.12a33.719,33.719,0,0,0,3.75-.35V135.39a32.008,32.008,0,0,0-3.17-.47,34.384,34.384,0,0,0-3.87-.23,35.5,35.5,0,0,0-4.63.29,12.343,12.343,0,0,0-3.81,1.11,6.476,6.476,0,0,0-2.58,2.23,6.178,6.178,0,0,0-.94,3.52c0,2.74.92,4.63,2.76,5.69a15.2,15.2,0,0,0,7.57,1.58Z" fill="#5f6f5b"/>
      <path id="Path_3792" data-name="Path 3792" d="M479.47,101.72a98.458,98.458,0,0,1,11.5-2.41,94.82,94.82,0,0,1,14.78-1.11,36.493,36.493,0,0,1,13.08,2.05,19.667,19.667,0,0,1,8.27,5.81,22.676,22.676,0,0,1,4.34,8.92,47.435,47.435,0,0,1,1.29,11.5v34.85H515.25V128.6q0-8.445-2.23-11.97c-1.49-2.35-4.26-3.52-8.33-3.52q-1.875,0-3.99.18c-1.41.12-2.66.26-3.75.41v47.63H479.47v-59.6Z" fill="#5f6f5b"/>
      <path id="Path_3793" data-name="Path 3793" d="M594.92,111.34q-2.115,2.355-5.7,6.34t-7.7,8.8q-4.11,4.815-8.29,10.09t-7.58,10.21h29.86v14.55H544.47V151.01q2.46-4.23,5.92-9.09,3.465-4.875,7.27-9.8t7.57-9.56q3.75-4.635,6.92-8.39H545.87V99.62h49.04v11.73Z" fill="#5f6f5b"/>
      <path id="Path_3794" data-name="Path 3794" d="M633.99,70.28a37.893,37.893,0,0,1,9.03,1,42.734,42.734,0,0,1,6.34,1.94l-3.4,13.96a23.173,23.173,0,0,0-5.1-1.58,27.459,27.459,0,0,0-5.1-.53,14.208,14.208,0,0,0-5.34.88,8.212,8.212,0,0,0-3.4,2.41A9.3,9.3,0,0,0,625.26,92a18.934,18.934,0,0,0-.53,4.58v3.05h21.59v14.55H624.73v47.16H607.25V96.33q0-11.97,6.75-19.01t20-7.04Z" fill="#5f6f5b"/>
      <path id="Path_3795" data-name="Path 3795" d="M677.98,97.97a40.65,40.65,0,0,1,12.91,1.76,20,20,0,0,1,8.27,5.05,18.566,18.566,0,0,1,4.4,7.98,39.376,39.376,0,0,1,1.29,10.44v36.37q-3.75.825-10.44,1.94a100.8,100.8,0,0,1-16.19,1.11,50.854,50.854,0,0,1-10.85-1.06,23.546,23.546,0,0,1-8.39-3.46,15.8,15.8,0,0,1-5.4-6.28,21.679,21.679,0,0,1-1.88-9.5,17.582,17.582,0,0,1,2.17-9.15,16.657,16.657,0,0,1,5.81-5.98,26.222,26.222,0,0,1,8.33-3.23,47.04,47.04,0,0,1,9.74-1,56.711,56.711,0,0,1,6.04.29,27.641,27.641,0,0,1,4.28.76v-1.64a9.684,9.684,0,0,0-2.7-7.16q-2.7-2.7-9.39-2.7a59.783,59.783,0,0,0-8.8.65,37.93,37.93,0,0,0-7.51,1.82l-2.23-14.08c1.02-.31,2.29-.65,3.81-1s3.19-.66,4.99-.94,3.7-.51,5.69-.7,4.01-.29,6.04-.29Zm1.41,51.15c1.72,0,3.36-.04,4.93-.12a33.719,33.719,0,0,0,3.75-.35V135.39a32.009,32.009,0,0,0-3.17-.47,34.384,34.384,0,0,0-3.87-.23,35.5,35.5,0,0,0-4.63.29,12.343,12.343,0,0,0-3.81,1.11,6.477,6.477,0,0,0-2.58,2.23,6.178,6.178,0,0,0-.94,3.52c0,2.74.92,4.63,2.76,5.69a15.2,15.2,0,0,0,7.57,1.58Z" fill="#5f6f5b"/>
      <path id="Path_3796" data-name="Path 3796" d="M717.76,130.47a36.286,36.286,0,0,1,2.17-12.61,29.546,29.546,0,0,1,16.25-17.3,32.925,32.925,0,0,1,13.38-2.58,42.819,42.819,0,0,1,9.03.88,44.564,44.564,0,0,1,7.98,2.52l-3.64,13.96a43.137,43.137,0,0,0-5.4-1.64,28.233,28.233,0,0,0-6.57-.7q-7.74,0-11.56,4.81t-3.81,12.67q0,8.325,3.58,12.91t12.5,4.58a41.789,41.789,0,0,0,6.8-.59,29.074,29.074,0,0,0,6.69-1.88l2.46,14.31a41.34,41.34,0,0,1-7.63,2.23,49.959,49.959,0,0,1-10.09.94,38.036,38.036,0,0,1-14.55-2.52,27.4,27.4,0,0,1-10.03-6.86,26.738,26.738,0,0,1-5.75-10.27,43.662,43.662,0,0,1-1.82-12.85Z" fill="#5f6f5b"/>
      <path id="Path_3797" data-name="Path 3797" d="M779.35,161.32V73.1l17.48-2.82V99.85a36,36,0,0,1,4.52-1.11,28.581,28.581,0,0,1,5.34-.53,33.15,33.15,0,0,1,12.49,2.05,19.512,19.512,0,0,1,7.98,5.81,22.5,22.5,0,0,1,4.22,8.92,49.644,49.644,0,0,1,1.23,11.5v34.85H815.13V128.61q0-8.445-2.17-11.97t-8.04-3.52a22.684,22.684,0,0,0-4.4.41c-1.37.27-2.6.57-3.7.88v46.93H779.34Z" fill="#5f6f5b"/>
      <path id="Path_3798" data-name="Path 3798" d="M865.94,121.77q2.58-2.805,5.33-5.83c1.84-2.02,3.61-4.02,5.33-6.01s3.34-3.87,4.86-5.66,2.83-3.34,3.93-4.67h20.79q-6.225,7.14-12.14,13.64t-12.96,13.4a79.942,79.942,0,0,1,7.27,7.58q3.75,4.41,7.27,9.11t6.45,9.4q2.925,4.7,4.93,8.58H886.9q-1.875-3.06-4.27-6.76t-5.09-7.41q-2.7-3.705-5.68-7.11a47.942,47.942,0,0,0-5.91-5.76v27.05H848.47V73.1l17.48-2.82v51.49Z" fill="#5f6f5b"/>
      <path id="Path_3799" data-name="Path 3799" d="M953.58,115.1c-1.57-.39-3.4-.8-5.51-1.23a34.051,34.051,0,0,0-6.8-.65,32.451,32.451,0,0,0-3.93.29,22.712,22.712,0,0,0-3.46.65v47.16H916.4V102.89a106.444,106.444,0,0,1,11.09-3.11,63.681,63.681,0,0,1,14.25-1.47c.94,0,2.07.06,3.4.18s2.66.27,3.99.47,2.66.43,3.99.7a18.539,18.539,0,0,1,3.4,1l-2.93,14.43Z" fill="#5f6f5b"/>
      <path id="Path_3800" data-name="Path 3800" d="M986.9,97.97a40.65,40.65,0,0,1,12.91,1.76,20,20,0,0,1,8.27,5.05,18.566,18.566,0,0,1,4.4,7.98,39.376,39.376,0,0,1,1.29,10.44v36.37q-3.75.825-10.44,1.94a100.8,100.8,0,0,1-16.19,1.11,50.854,50.854,0,0,1-10.85-1.06,23.546,23.546,0,0,1-8.39-3.46,15.8,15.8,0,0,1-5.4-6.28,21.679,21.679,0,0,1-1.88-9.5,17.582,17.582,0,0,1,2.17-9.15,16.657,16.657,0,0,1,5.81-5.98,26.222,26.222,0,0,1,8.33-3.23,47.04,47.04,0,0,1,9.74-1,56.711,56.711,0,0,1,6.04.29,27.641,27.641,0,0,1,4.28.76v-1.64a9.684,9.684,0,0,0-2.7-7.16q-2.7-2.7-9.39-2.7a59.783,59.783,0,0,0-8.8.65,37.93,37.93,0,0,0-7.51,1.82l-2.23-14.08c1.02-.31,2.29-.65,3.81-1s3.19-.66,4.99-.94,3.7-.51,5.69-.7,4.01-.29,6.04-.29Zm1.41,51.15c1.72,0,3.36-.04,4.93-.12a33.719,33.719,0,0,0,3.75-.35V135.39a32.009,32.009,0,0,0-3.17-.47,34.384,34.384,0,0,0-3.87-.23,35.5,35.5,0,0,0-4.63.29,12.343,12.343,0,0,0-3.81,1.11,6.477,6.477,0,0,0-2.58,2.23,6.178,6.178,0,0,0-.94,3.52c0,2.74.92,4.63,2.76,5.69a15.2,15.2,0,0,0,7.57,1.58Z" fill="#5f6f5b"/>
      <path id="Path_3801" data-name="Path 3801" d="M1056.35,70.28a37.893,37.893,0,0,1,9.03,1,42.731,42.731,0,0,1,6.34,1.94l-3.4,13.96a23.172,23.172,0,0,0-5.1-1.58,27.459,27.459,0,0,0-5.1-.53,14.207,14.207,0,0,0-5.34.88,8.213,8.213,0,0,0-3.4,2.41,9.3,9.3,0,0,0-1.76,3.64,18.934,18.934,0,0,0-.53,4.58v3.05h21.59v14.55h-21.59v47.16h-17.48V96.33q0-11.97,6.75-19.01t20-7.04Z" fill="#5f6f5b"/>
      <path id="Path_3802" data-name="Path 3802" d="M1078.53,84.24l17.48-2.82V99.61h21v14.55h-21v21.7a17.264,17.264,0,0,0,1.94,8.8q1.935,3.285,7.8,3.29a33.652,33.652,0,0,0,5.81-.53,29.737,29.737,0,0,0,5.46-1.47l2.46,13.61a50.317,50.317,0,0,1-7.04,2.23,40.768,40.768,0,0,1-9.5.94,31.3,31.3,0,0,1-11.85-1.94,18.579,18.579,0,0,1-7.51-5.4,20.011,20.011,0,0,1-3.93-8.39,49.733,49.733,0,0,1-1.11-10.91V84.23Z" fill="#5f6f5b"/>
      <path id="Path_3803" data-name="Path 3803" d="M1150.33,152.06q0,5.28-3.34,8.04a11.761,11.761,0,0,1-15.14,0q-3.345-2.76-3.34-8.04t3.34-8.04a11.761,11.761,0,0,1,15.14,0Q1150.335,146.78,1150.33,152.06Z" fill="#5f6f5b"/>
      <path id="Path_3804" data-name="Path 3804" d="M1155.61,130.47a36.285,36.285,0,0,1,2.17-12.61,29.546,29.546,0,0,1,16.25-17.3,32.925,32.925,0,0,1,13.38-2.58,42.818,42.818,0,0,1,9.03.88,44.564,44.564,0,0,1,7.98,2.52l-3.64,13.96a43.134,43.134,0,0,0-5.4-1.64,28.232,28.232,0,0,0-6.57-.7q-7.74,0-11.56,4.81t-3.81,12.67q0,8.325,3.58,12.91t12.5,4.58a41.791,41.791,0,0,0,6.8-.59,29.071,29.071,0,0,0,6.69-1.88l2.46,14.31a41.338,41.338,0,0,1-7.63,2.23,49.96,49.96,0,0,1-10.09.94,38.036,38.036,0,0,1-14.55-2.52,27.4,27.4,0,0,1-10.03-6.86,26.737,26.737,0,0,1-5.75-10.27,43.664,43.664,0,0,1-1.82-12.85Z" fill="#5f6f5b"/>
      <path id="Path_3805" data-name="Path 3805" d="M1217.2,161.32V73.1l17.48-2.82V99.85a36.006,36.006,0,0,1,4.52-1.11,28.581,28.581,0,0,1,5.34-.53,33.15,33.15,0,0,1,12.49,2.05,19.513,19.513,0,0,1,7.98,5.81,22.5,22.5,0,0,1,4.22,8.92,49.647,49.647,0,0,1,1.23,11.5v34.85h-17.48V128.61q0-8.445-2.17-11.97t-8.04-3.52a22.684,22.684,0,0,0-4.4.41c-1.37.27-2.6.57-3.7.88v46.93h-17.48Z" fill="#5f6f5b"/>
    </g>
  </g>
</svg>