<svg xmlns="http://www.w3.org/2000/svg" width="204.686" height="221.602" viewBox="0 0 204.686 221.602">
  <g id="Group_6970" data-name="Group 6970" transform="translate(-7222.314 -5585.998)">
    <path id="Path_7403" data-name="Path 7403" d="M554.531,1460.81H543.049a21.133,21.133,0,0,1-5.073-.53c-4.005-1.07-6.408-4.01-6.275-8.15.134-4.8.534-9.61.935-14.42.267-2.93,1.468-5.34,4.272-6.67a5.373,5.373,0,0,0,1.735-1.74c4.006-9.48,8.945-18.42,13.618-27.5a82.9,82.9,0,0,0,5.073-11.08c4.406-12.15,8.678-24.3,12.95-36.58a80.594,80.594,0,0,1,11.215-20.83,66.365,66.365,0,0,0,6.541-11.61c2.27-4.67,4.807-9.08,8.678-12.55a46.6,46.6,0,0,0,4.005-4.67,9.745,9.745,0,0,1,9.746-3.34,8.947,8.947,0,0,1,5.474,4.14c7.476,11.21,14.953,22.29,22.295,33.64,4.139,6.41,7.877,12.95,11.882,19.36,10.013,16.02,20.427,31.77,31.508,47.13a146.571,146.571,0,0,1,9.879,15.62c3.2,5.74,3.6,12.14,3.471,18.69a3.57,3.57,0,0,1-2.67,3.6,35.23,35.23,0,0,1-6.542,1.6c-28.3,3.74-56.739,7.48-85.043,11.08-8.41,1.07-16.955,2.14-25.5,2.94-6.942.67-13.885.94-20.827,1.47A1.045,1.045,0,0,1,554.531,1460.81Zm-1.87-26.97c1.736.14,2.938.4,4.139.4,4.539-.13,9.212-.13,13.751-.4a357.84,357.84,0,0,0,39.785-3.74c7.743-1.33,15.486-2.93,23.363-3.87,8.545-1.07,17.222-1.47,25.9-2.13,1.2-.14,2.4-.27,3.872-.54-.534-.8-.668-1.2-.935-1.6-12.282-15.89-23.5-32.57-34.711-49.13-2.4-3.47-5.34-6.67-7.877-10.01-3.471-4.41-6.942-8.95-10.413-13.49a9.334,9.334,0,0,1-1.068-2c-1.2-2.94-1.068-5.74,1.068-8.14s4.806-2.94,7.877-2.14c.667.13,1.2.27,2.4.53-4.006-6.4-7.877-12.28-12.016-17.88a15.023,15.023,0,0,0-5.34,6.67c-2.67,5.61-5.073,11.35-9.078,16.15a57.977,57.977,0,0,0-8.945,16.16c-2.67,7.34-5.073,14.68-7.744,22.03-2.937,7.87-5.473,16.02-8.944,23.63-4.006,8.68-8.678,16.82-13.084,25.23A32.14,32.14,0,0,0,552.661,1433.84Z" transform="translate(6732 4301)" fill="#ccd2c4"/>
    <path id="Path_7404" data-name="Path 7404" d="M505,1448.93a121.066,121.066,0,0,1,2.937-12.02c6.408-18.42,14.018-36.31,21.895-54.07,10.947-24.7,23.23-48.73,35.646-72.62a109.227,109.227,0,0,1,11.481-18.43,51.4,51.4,0,0,1,5.341-5.47c1.869-1.74,3.738-1.74,5.74-.13a12.482,12.482,0,0,1,2.67,2.67c3.6,4.94,7.343,9.74,10.681,14.81,9.479,15.09,18.824,30.31,28.036,45.53,3.338,5.61,6.809,11.08,10.013,16.82,4.94,8.81,10.947,17.09,16.822,25.37a134.88,134.88,0,0,1,15.62,29.37,23.832,23.832,0,0,1,1.468,6.81,8.073,8.073,0,0,1-4.672,8.41,23.111,23.111,0,0,1-6.008,2.13,94.188,94.188,0,0,1-20.293,2.01c-19.759-.4-39.117,2.13-58.742,4.27-18.825,2.14-37.782,4-56.607,6.01-5.34.53-10.814,1.47-16.154,2.27a3.984,3.984,0,0,0-1.2.26C505.8,1453.47,505.134,1452.93,505,1448.93Z" transform="translate(6732 4301)" fill="#9ca898"/>
    <g id="Group_6839" data-name="Group 6839" transform="translate(6732 4301)">
      <path id="Path_7405" data-name="Path 7405" d="M530.825,1506.6a7.671,7.671,0,0,1,.8-5.78c1.516-2.94,3.031-5.96,4.814-8.81a293.529,293.529,0,0,1,21.664-28.57c16.226-19.49,33.343-38.18,51.174-56.33a347.336,347.336,0,0,1,60.445-48.41c4.992-3.21,9.9-6.5,14.8-9.7a9.641,9.641,0,0,0,2.942-2.76,8.663,8.663,0,0,0-4.279-.09c-4.012.8-8.113,1.51-12.125,2.67-15.691,4.36-30.668,10.59-45.468,17.44a451.084,451.084,0,0,0-102.97,66.39c-6.241,5.34-12.571,10.5-18.811,15.75-.892.8-1.873,1.51-2.853,2.23-.624.44-1.427.8-2.14.17-.8-.8-.267-1.6.267-2.31a23.318,23.318,0,0,1,1.962-2.22,340.434,340.434,0,0,1,28.618-28.13,617.114,617.114,0,0,1,122.762-83.74q10.164-5.34,20.327-10.95a76.361,76.361,0,0,0,6.419-4.18,16.983,16.983,0,0,0,2.229-2.22,7.421,7.421,0,0,0-2.318-.54,97.416,97.416,0,0,0-10.164.71c-14.977,2.5-29.42,6.86-43.684,11.84-39.584,13.97-76.493,33.28-111.173,56.96-5.438,3.73-10.877,7.56-16.4,11.3-1.337.89-2.764,1.78-4.19,2.58a4.689,4.689,0,0,1-1.516.71c-.535.09-1.426.09-1.515-.18a2.2,2.2,0,0,1,.089-1.69,7.459,7.459,0,0,1,1.515-1.78c3.745-3.29,7.4-6.67,11.323-9.79,14.086-11.21,29.242-20.82,44.665-29.99,26.032-15.48,53.224-28.48,81.129-40.13,6.686-2.85,13.372-5.7,20.059-8.64,2.318-1.06,4.547-2.31,6.775-3.56a26.2,26.2,0,0,0,2.675-2.04,13.411,13.411,0,0,0-4.369-.54,111.817,111.817,0,0,0-17.919,3.03c-21.753,5.34-42.7,13.08-63.209,22.25a476.8,476.8,0,0,0-55.542,29.19c-2.942,1.78-5.616,3.82-8.38,5.87-.535.45-1.427.71-1.248,1.78,0,.18-.624.45-.981.71-.267-.35-.713-.8-.624-1.07a3.759,3.759,0,0,1,.981-1.6,44.283,44.283,0,0,1,4.636-3.73,230.475,230.475,0,0,1,23.09-13.8c26.656-14.42,54.294-26.7,83.357-35.69a219.524,219.524,0,0,1,28.975-7.2c2.585-.45,5.26-.72,7.845-.98a11.169,11.169,0,0,1,3.388.35,1.56,1.56,0,0,1,.891,2.67,9.258,9.258,0,0,1-2.139,2.05,65.245,65.245,0,0,1-6.954,3.83c-10.52,4.62-21.04,9.16-31.56,13.7a567.852,567.852,0,0,0-94.234,50.46,276.806,276.806,0,0,0-26.746,19.85,5.92,5.92,0,0,0-1.515,1.78c.713-.45,1.337-.89,2.05-1.34,10.164-6.85,20.149-13.97,30.49-20.56a464.553,464.553,0,0,1,106.716-49.92,223.189,223.189,0,0,1,32.094-8.1c3.656-.62,7.311-.8,11.055-1.07a4.925,4.925,0,0,1,2.5.45,1.931,1.931,0,0,1,1.159,3.02,7.785,7.785,0,0,1-2.051,2.14c-2.229,1.6-4.547,3.2-6.954,4.63-9.361,5.16-18.722,10.23-28.172,15.3a611.644,611.644,0,0,0-122.049,86.59c-3.121,2.85-6.152,5.88-9.272,8.81-.713.72-1.516,1.34-2.229,1.96a1.563,1.563,0,0,0,.357.45,19.43,19.43,0,0,1,1.6-1.25c9.629-7.74,18.99-15.75,28.8-23.23a415.768,415.768,0,0,1,106.358-59.35c9.45-3.56,18.99-6.95,28.975-8.99,2.674-.54,5.349-.71,8.023-1.07a2.834,2.834,0,0,1,1.248.09c2.14.35,2.764,1.87,1.427,3.56a19.167,19.167,0,0,1-3.12,2.85c-2.853,2.04-5.706,4-8.648,5.87-10.074,6.59-20.059,13.26-29.688,20.47a350.838,350.838,0,0,0-37.444,32.48,880.952,880.952,0,0,0-63.833,71.28c-4.1,5.17-7.756,10.77-11.411,16.2C532.429,1499.93,530.914,1502.95,530.825,1506.6Z" fill="#deb47d"/>
    </g>
  </g>
</svg>
