<svg xmlns="http://www.w3.org/2000/svg" width="260" height="296.905" viewBox="0 0 260 296.905">
  <g id="Group_6924" data-name="Group 6924" transform="translate(-1068.5 -6525)">
    <text id="_02" data-name="02" transform="translate(1070.5 6753)" fill="none" stroke="#deb47d" stroke-width="2" font-size="240" font-family="Raleway-SemiBold, Raleway" font-weight="600" letter-spacing="-0.1em"><tspan x="0" y="0">02</tspan></text>
    <g id="Group_6922" data-name="Group 6922" transform="translate(3139.675 -3000.491)">
      <path id="Path_8111" data-name="Path 8111" d="M2651.93,336.663c-9.26,16.974-22.54,31.448-36.54,44.737-2.53,2.411-5.3,5.175-5.41,8.673-.11,3.254,2.2,6.174,4.95,7.909a16.347,16.347,0,0,0,16.92.1c5.69-3.5,9.18-10.516,15.68-12.2a64.373,64.373,0,0,1-5.03,46.422l39.2-.088a144.07,144.07,0,0,1,17.22.647c4.41.529,9.21,1.382,13.02-.882a15.556,15.556,0,0,1,3.44-1.96c3.06-.862,6.04,1.9,9.23,1.842a10.669,10.669,0,0,0,4.76-1.7c9.36-5.164,18.87-10.456,26.22-18.218s12.32-18.522,10.57-29.067a8.378,8.378,0,0,0-1.96-4.586c-1.96-2.009-5.34-1.96-7.84-.637s-4.22,3.675-5.79,5.988a116.712,116.712,0,0,0-8.37,14.435c-1.62-8.575-3.26-17.248-6.86-25.215s-9.26-15.3-17.12-19.081c-2.73-1.323-5.68-2.195-8.22-3.842-3.03-1.96-5.3-4.9-8.14-7.163-4.45-3.519-10.05-5.145-15.52-6.625q-9.36-2.549-18.77-4.822c-6.98-1.695-14.84-3.155-20.94.637" transform="translate(-4615.996 9385.873)" fill="#99ac98"/>
      <path id="Path_8112" data-name="Path 8112" d="M2684.87,373a30.2,30.2,0,0,1,17.57-11.162c3.47-.745,7.62-.647,9.92,2.067a8.668,8.668,0,0,1,1.7,5.88,10.875,10.875,0,0,1-2.36,6.86c-3.38,3.92-10.27,4.616-11.96,9.546-.98,2.724.12,6.105-1.65,8.379-3.1,3.92-10.85.137-13.87,4.145-.62.813-.91,1.852-1.54,2.666-3.92,5.037-4.42-8.35-4.19-10.359C2679.24,384.478,2680.83,378.274,2684.87,373Z" transform="translate(-4615.996 9385.873)" fill="#ccd2c4"/>
      <path id="Path_8113" data-name="Path 8113" d="M2637.64,252.178a12.513,12.513,0,0,1,2.38,7.84,67.591,67.591,0,0,0,12.84-1.892,11.136,11.136,0,0,0,2.75-.98,12.028,12.028,0,0,0,2.54-2.126l6.86-6.919c.52-.52,1.21-1.088,1.9-.872a1.921,1.921,0,0,1,.98.931c3.07,5.086,2.32,11.505,3.35,17.355,1.87,10.526,9.5,19.071,13.12,29.136,1.22,3.44,1.96,7.036,3.33,10.437a63.006,63.006,0,0,0,4.09,7.987l20.53,35.976c-22.97,3.479-46.15-8.115-69.2-5.155l-.1-12.985c0-4.41-.17-9.134-2.7-12.74-1.96-2.852-5.25-4.567-8.5-5.792a44.1,44.1,0,0,0-21.92-2.3c-3.34-4.047-4.72-9.31-5.99-14.4-1.16-4.616-2.24-9.8.3-13.848,2.39-3.782,7.13-5.164,11.33-6.683,5.17-1.872,11.41-5.047,14.57-9.8C2631.04,263.947,2635.75,249.581,2637.64,252.178Z" transform="translate(-4615.996 9385.873)" fill="#99ac98"/>
      <path id="Path_8114" data-name="Path 8114" d="M2615.36,395.179c2.66,1.146,6.29.627,7.71-1.9,1.22-2.176.51-5.106,1.91-7.164,1.56-2.284,4.9-2.431,7.03-4.185a15.3,15.3,0,0,0,2.69-3.528,38.491,38.491,0,0,1,6.25-6.86,170.952,170.952,0,0,1,17.95-14.259c4.61-3.175,9.8-6.781,10.69-12.318a9.8,9.8,0,0,0-17.52-7.311,22.408,22.408,0,0,0-2.31,4.5,88.391,88.391,0,0,1-27.54,35.447c-3.49,2.665-7.24,5.076-10.29,8.251-1.7,1.754-2.84,2.568-2.05,4.694C2610.5,392.356,2613.66,394.454,2615.36,395.179Z" transform="translate(-4615.996 9385.873)" fill="#ccd2c4"/>
      <path id="Path_8115" data-name="Path 8115" d="M2631.37,312.692l21.43,2.793c4.9.637,10.49,1.794,12.61,6.214a2.213,2.213,0,0,1,.28,1.332,2.409,2.409,0,0,1-1.25,1.392,24.96,24.96,0,0,1-8.82,3.391c-.4,1.44,2.19,1.529,3.19,2.636.77.862.37,2.313-.46,3.116a13.617,13.617,0,0,1-2.94,1.764c-4.71,2.656-6.08,8.693-9.24,13.064a3.256,3.256,0,0,1-2.75,1.764,43.22,43.22,0,0,1-.23-11.966c.46-3.832,1.44-7.683.98-11.525s-2.76-7.84-6.52-8.692" transform="translate(-4615.996 9385.873)" fill="#ccd2c4"/>
      <path id="Path_8116" data-name="Path 8116" d="M2638.14,262.83a3.8,3.8,0,0,1,2.8.656c1.07.98.92,2.685.3,3.969-2.12,4.361-7.69,5.518-11.63,8.33-1.88,1.343-3.45,3.126-5.53,4.116s-4.27,1.1-6.2,2.156-3.33,3.7-1.96,5.429c1.11.912,2.78.637,4.07,0a18.043,18.043,0,0,1,3.87-1.832c2.82-.588,5.73,1.823,6.18,4.674a8,8,0,0,1-3.5,7.439,14.507,14.507,0,0,1-8.21,2.3c2.49.48,3.62,3.782,2.61,6.115s-3.46,3.724-5.88,4.449a5.874,5.874,0,0,1-2.94.294c-2.65-.559-3.72-3.675-4.33-6.321q-1.68-7.369-3.37-14.7c-.9-3.92-1.48-8.82,1.74-11.28,2.24-1.685,5.36-1.352,8.05-2.136a19.305,19.305,0,0,0,5.63-3.166C2625.3,269.356,2631.04,263.231,2638.14,262.83Z" transform="translate(-4615.996 9385.873)" fill="#ccd2c4"/>
      <path id="Path_8222" data-name="Path 8222" d="M2558.97,431.41c-.14-.872.8-3.656.74-4.665-.34-.559-.91,1.107-.98.451-.22-.206-.36,1.8-.58,1.6s-.42.255-.62.2c.19-1.293.71-3.146.33-3.391a21.245,21.245,0,0,0,.66-4.341c.55-1.96.98-3.734,1.42-5.6.22-.931.44-1.872.66-2.842l.09-.353v-.1h.42a1.51,1.51,0,0,0,.71-.049h-.01a.842.842,0,0,0-.1.265v.225a2.2,2.2,0,0,0,0,.363v.274h-.11a7.4,7.4,0,0,1-.98.079h-.46a2.747,2.747,0,0,1-.6-.167,2.374,2.374,0,0,1-1.1-.921,3.476,3.476,0,0,1-.48-1.6,13.305,13.305,0,0,0-.25-1.4c-.06-1.842-.17-3.832-.3-5.88,0-.529-.07-1.068-.1-1.607a4.2,4.2,0,0,1,.14-1.411,3.022,3.022,0,0,1,1.32-1.774,3.338,3.338,0,0,1,1.84-.49,7.743,7.743,0,0,1,1.05.088h.5a.2.2,0,0,1,0,.108c.02.135.05.269.08.4a1.632,1.632,0,0,0,.07.215v.059l2.64,1.059a5.94,5.94,0,0,0,.11,1.881c.09.206,0,.137.12.226l.09.068v.059a1.254,1.254,0,0,0,0,.274c0,.226.1.324,0,.236l-.98,1.176c-.06-.943-.16-1.881-.31-2.813v-.921a3.275,3.275,0,0,1,.18-.98,2.638,2.638,0,0,1,.86-1.186,3.153,3.153,0,0,1,1.58-.578l.78-.118,3.18-.519c.11,0,.33-.059.59-.079a2.974,2.974,0,0,1,1.07.128,2.3,2.3,0,0,1,1.27,1.058,2.574,2.574,0,0,1,.31,1.117v1.657c0,.98-.07,1.96-.15,2.871l-1.47-1.539a5.592,5.592,0,0,1,1.09.187h.65l-1.51,1.391v-4.086a2.8,2.8,0,0,1,.28-1.363,2.208,2.208,0,0,1,.87-.98,2.779,2.779,0,0,1,.9-.323l2.8-.284c.85-.1,1.65-.2,2.38-.314h.68a1.961,1.961,0,0,1,1.96,1.872,70.026,70.026,0,0,1-.34,11.672,1.974,1.974,0,0,1-.74,1.338,1.943,1.943,0,0,1-1.47.406,1.752,1.752,0,0,1-.5-.127l-.15-.02a3.659,3.659,0,0,0-3.51,1.225l-2.89-2.381a3.087,3.087,0,0,1,2.22-.51,3.62,3.62,0,0,1,1.58.667,3.544,3.544,0,0,1,.98,1.1,3.41,3.41,0,0,1,.34.98,7.221,7.221,0,0,1,.4,2.254c0,.578.06,1.137.11,1.754a41.587,41.587,0,0,0,.98,8.967c0,.98.52,3.1.47,4.028.07.412.14.755.19,1.049l-.23-.157a1.5,1.5,0,0,1,1.36.7,1.371,1.371,0,0,1,.1,1.548,1.842,1.842,0,0,0-.37-.98,1.242,1.242,0,0,0-.98-.558.47.47,0,0,1-.5-.373c-.05-.225-.11-.46-.16-.715-.34-.177.06.98-.28.774,0-.706-.48-2.43-.54-3.361a67.926,67.926,0,0,1-2.12-10.281c-.13-.607-.25-1.2-.36-1.8a13.072,13.072,0,0,0-.35-1.636,2.812,2.812,0,0,0-.27-.559,1,1,0,0,0-.3-.294.786.786,0,0,0-.34-.108h-.08l-1.75-1.431a5.965,5.965,0,0,1,6.44-3.263,5.651,5.651,0,0,1,1.28.353l-1.81.98a50.261,50.261,0,0,0-.13-10.9l1.76,1.549c-1.27.107-2.44.2-3.56.323h-1.74c-.08,0-.06,0,.15-.069a1.256,1.256,0,0,0,.6-.607.634.634,0,1,1,.06-.167v.431c-.06,1.265-.09,2.548-.11,3.783a1.75,1.75,0,0,1-.53,1.256,1.8,1.8,0,0,1-1.27.508h-1.87a1.813,1.813,0,0,1-1.78-1.734v-.177c0-.794-.07-1.548-.1-2.254a9.777,9.777,0,0,1,.07-1.44v-.6a.909.909,0,0,0,.13.392,1.374,1.374,0,0,0,.69.607c.48.138.43,0,.27.079l-.74.117-1.49.265-1.51.255-.51.088a.957.957,0,0,0,.32-.216,1.118,1.118,0,0,0,.33-.529v2.529l.09.793a1.637,1.637,0,0,1-.54,1.382l-.08.069a3.045,3.045,0,0,1-1.56.7,3.681,3.681,0,0,1-1.52-.127,3.961,3.961,0,0,1-2.2-1.666,5.38,5.38,0,0,1-.76-2.264,11.927,11.927,0,0,1,0-1.891l2.77,1.548a3.163,3.163,0,0,1-1.59.51,5.237,5.237,0,0,1-1.1-.049l-.67-.079h0a.724.724,0,0,0,.38-.352c.05-.138,0-.118,0,0v1.391c.11,2.039.25,4.018.44,5.88q0,.98.06,1.96a1.381,1.381,0,0,0-.21-.392,1.123,1.123,0,0,0-.67-.4h0l.59-.078a3.137,3.137,0,0,1,1.32.127,2.343,2.343,0,0,1,.98.618,2.382,2.382,0,0,1,.57.98,2.928,2.928,0,0,1,0,1.44l-.13.608c-.18.735-.35,1.48-.52,2.215-.68,2.94-1.38,6-2.19,8.82-.3,1.607-.44,2.94-.66,4.341-.25,1.284-.59.157-.87,1.176A9.7,9.7,0,0,1,2558.97,431.41Z" transform="translate(-4615.996 9385.873)"/>
      <path id="Path_8230" data-name="Path 8230" d="M2593.8,430.577a3.6,3.6,0,0,1-.59-1.764,3.909,3.909,0,0,1,.25-1.588c-.08-.264-.34-.205-.59,0s-.42.383-.41.069c-.09-.127-.27.294-.32.755s0,.882-.14.813c-.3-.235-.32.363-.54.382a4.005,4.005,0,0,1,.27-2.42c.31-.765.85-1.284.82-1.529a3.448,3.448,0,0,1,.93-.48,3.229,3.229,0,0,1,.98-.157c.58,0,.98.078,1.17.059h.11v.107a1.337,1.337,0,0,0,.08.343c0,.079,0,0-.16-.147s-.47-.294-.4-.274a1.2,1.2,0,0,0,.14-.323l.21-.637c.15-.422.28-.843.42-1.265.28-.833.58-1.666.88-2.489a37.8,37.8,0,0,1,2.29-5.066l.23-.559,1.43,2.538a19.83,19.83,0,0,0-2.15.1,9.906,9.906,0,0,1-1.22-.147,2.707,2.707,0,0,1-1.38-.794,2.619,2.619,0,0,1-.69-1.656,4.035,4.035,0,0,1,.1-.98,5.033,5.033,0,0,1,.23-.754,4.922,4.922,0,0,1,.75-1.333,5.819,5.819,0,0,1,2.39-1.833,5.359,5.359,0,0,1,3.24-.274,1.961,1.961,0,0,1,.43,3.7,4.4,4.4,0,0,1-3.55.069,4.9,4.9,0,0,1-2.49-2.2,5.284,5.284,0,0,1-.57-3.146,6.651,6.651,0,0,1,.98-2.725,11.767,11.767,0,0,1,2.94-2.94,27.347,27.347,0,0,1,3.23-1.381,9.637,9.637,0,0,1,3.85-.588,6.339,6.339,0,0,1,2.05.5,6.118,6.118,0,0,1,1.71,1.127,4.556,4.556,0,0,1,1.49,3.568,4.67,4.67,0,0,1-.37,2.214,6.452,6.452,0,0,1-1.17,1.745,15.479,15.479,0,0,1-2.79,2.254l-.89-3.254c1.31-.088,2.53-.2,3.62-.353h.79a4.506,4.506,0,0,1,1.47.2,2.679,2.679,0,0,1,1.29.98,2.861,2.861,0,0,1,.48,1.225,4.628,4.628,0,0,1,0,.745v.422c0,1.107-.05,2.214-.08,3.3a1.961,1.961,0,0,1-1.96,1.96h-3.6v-.676a1,1,0,0,0-.07-.49,1.278,1.278,0,0,0-.14-.382,1.723,1.723,0,0,0,.98-.079l.49-.156h.14l.08.156.18.392.72,1.47a41.921,41.921,0,0,1,1.75,5.8c.25.6.43,1.117.61,1.617l.24.755c.1.254.17.49.22.6s.07,0-.19.275-.12.235-.11.137V425.8h.52a2.742,2.742,0,0,1,1.43.177,2.885,2.885,0,0,1,1.06.774,3.622,3.622,0,0,1,.91,2.45,6.592,6.592,0,0,1-.8,2.705,5.822,5.822,0,0,0-.47.647l-.08.107a.491.491,0,0,1-.46.226,19.519,19.519,0,0,1-2.86-.284c-1.64-.128-2.15-.049-3.62-.226a5.551,5.551,0,0,1,3.31-.529c.22-.294-.83-.167-.61-.461.6.216,2.19.1,3.02.236l.74-.059-.61.382a13.214,13.214,0,0,0,.66-1.715,2.825,2.825,0,0,0,0-1.578,1.5,1.5,0,0,0-.91-.98,3.053,3.053,0,0,0-.72.088,1.96,1.96,0,0,1-.98,0,1.762,1.762,0,0,1-.92-.578,3.726,3.726,0,0,1-.55-.823l-.33-.666-.66-1.3c-.42-.882-.83-1.764-1.24-2.665l-1.23-2.754-.62-1.431-.33-.735-.15-.372-.08-.187c-.04-.092-.08-.187-.12-.284a3.9,3.9,0,0,1-.14-.588,1.852,1.852,0,0,1,.2-.98,1.719,1.719,0,0,1,.84-.764,2.017,2.017,0,0,1,.71-.157l1.28-.069,2.52-.107-1.45,1.43V410.9a.8.8,0,0,0,.3.519c.29.225.46.206.39.216h-.46l-1.16.068-2.22.147h-1.12a1.805,1.805,0,0,1-.75-3.41,6.162,6.162,0,0,0,2.79-2.352,1.122,1.122,0,0,0,0-.98,1.813,1.813,0,0,0-.71-.765,2.316,2.316,0,0,0-1.35-.646,4.9,4.9,0,0,0-1.96.225,14.38,14.38,0,0,0-2.22.911,11.473,11.473,0,0,0-1.96,1.206,3.9,3.9,0,0,0-.84,1.333,2.458,2.458,0,0,0-.2,1.283.828.828,0,0,0,.08.265.63.63,0,0,0,.1.186,1.644,1.644,0,0,0,.36.343.851.851,0,0,0,.69.137l.34,3.3a1.8,1.8,0,0,0-1.72.657,1.306,1.306,0,0,0-.33.744v-.3a1.292,1.292,0,0,0-.55-.716c-.41-.206-.28-.1.06-.127.78.088,1.57.166,2.43.225a1.815,1.815,0,0,1,1.24.631,1.781,1.781,0,0,1,.41,1.329,1.594,1.594,0,0,1-.2.706,43.434,43.434,0,0,0-2.59,5.978c-.37,1.048-.72,2.107-.98,3.155-.1.353-.23.7-.36,1.039a3.2,3.2,0,0,1-1.31,1.47,3.125,3.125,0,0,1-1.82.382,7.265,7.265,0,0,1-.93-.137.525.525,0,0,0-.23,0h.06c.06,0,.06,0,0,.1v.245a.73.73,0,0,0,.06.3.319.319,0,0,1-.23.382c-.15.03-.31.059-.25.431Z" transform="translate(-4615.996 9385.873)"/>
      <path id="Path_8234" data-name="Path 8234" d="M2683.54,372.688a21.436,21.436,0,0,1-1.66,2.656,14.3,14.3,0,0,0-1.61,2.94c.09.755,1.42-1.186,1.19-.353.09.294,1.24-2.116,1.37-1.793s.54-.186.71,0c-.9,1.45-2.21,3.606-1.9,3.979a14.28,14.28,0,0,0-1.75,5.233,17.286,17.286,0,0,0-.72,7.036,26.883,26.883,0,0,0,1.84,7.272,19.856,19.856,0,0,0,1.96,3.332,46.773,46.773,0,0,0,7.84,10.163,1.971,1.971,0,0,1,0,2.812,1.981,1.981,0,0,1-1.65.559,46.212,46.212,0,0,0-10.03-.177,23.166,23.166,0,0,0-4.64.98,31.275,31.275,0,0,0-8.5,2.891,16.751,16.751,0,0,0-6.01,4.7,6.422,6.422,0,0,0,0,5.88c.93,1.568,2.87,2.019,4.77,1.96,1.53.187,3.43.187,5.24.255s3.68.049,5.48,0c3.6,0,7.03-.2,9.8-.411,3.11.1,6.97-.1,9,.2,1.96-.128,3.3-.1,4.9-.177a81.126,81.126,0,0,0,12.16-.666c1.32.1,4.2-.343,5.42-.235,2.45-.187,3.19-.392,5.4-.51a11.633,11.633,0,0,1-4.85,1.186c-.29.333,1.26,0,.98.343-.92-.1-3.28.333-4.52.333-3.92.715-8.9,1.264-13.94,1.666a161.311,161.311,0,0,1-18.08,1.362c-3.39.226-7.06.363-10.7.412h-5.46a13.023,13.023,0,0,1-5.88-1.186,7.675,7.675,0,0,1-3.18-3.744,9.635,9.635,0,0,1-.56-4.9,10.066,10.066,0,0,1,.56-2.352,10.816,10.816,0,0,1,1.07-2.077,14.649,14.649,0,0,1,2.8-3.126,33.886,33.886,0,0,1,7.52-3.92,35.873,35.873,0,0,1,8.38-2.2,39.259,39.259,0,0,1,13.29-.343l-1.51,2.94a64.18,64.18,0,0,1-8.28-10.495,34.458,34.458,0,0,1-4.14-11.76,24.716,24.716,0,0,1,.09-6.655,23.554,23.554,0,0,1,1.96-6.125,46.294,46.294,0,0,1,2.69-5.586c.98-1.548.67,0,1.53-1.225a13.764,13.764,0,0,1,1.62-1.078Z" transform="translate(-4615.996 9385.873)"/>
      <path id="Path_8235" data-name="Path 8235" d="M2683.96,303.3c1.22,1.048,4.48,5.723,5.81,7.1.9.441-.98-2.4-.09-1.558.39.068-2.2-2.842-1.82-2.744s-.13-.745,0-.873c1.65,1.96,3.79,5.057,4.31,5.018,2.03,2.715,4,5.527,5.2,6.86a124.453,124.453,0,0,1,10.86,20.531c.91,1.96,1.83,3.92,2.61,5.282.5,1.147.98,2.3,1.6,3.469l.9,1.764c.15.324.32.637.49.98l.11.245c.39-.186-.48.275-.59.177a1.406,1.406,0,0,0-.57-.128.872.872,0,0,0-.76.167.332.332,0,0,0-.07.451c-.74-.275,1.96.98-1.54-.637a1.725,1.725,0,0,0-.18.892v.137a2.321,2.321,0,0,1,0-.373,2.039,2.039,0,0,1,.06-.49,2.617,2.617,0,0,1,.07-.274.966.966,0,0,1,.13-.343,2.49,2.49,0,0,1,1.06-1.049,2.743,2.743,0,0,1,.98-.254,2.683,2.683,0,0,1,.67,0,4.1,4.1,0,0,1,.85.225,11.011,11.011,0,0,1,1.23.539l1.96,1.029c1.28.676,2.55,1.45,3.85,2.205a51.221,51.221,0,0,1,7.55,5.5,28.456,28.456,0,0,1,6.14,7.673c1.39,2.489,2.44,5.018,3.29,6.645a77.709,77.709,0,0,1,4.4,13.377A45.067,45.067,0,0,1,2743,397.7v.7l-2.8-.451a53.763,53.763,0,0,1,3.98-10.476,38.777,38.777,0,0,1,6.03-8.742,26.229,26.229,0,0,1,3.28-2.616,20.931,20.931,0,0,1,1.82-1.137,14.684,14.684,0,0,1,1.96-.98,9.974,9.974,0,0,1,2.41-.686,7.152,7.152,0,0,1,7.04,3.175,12.7,12.7,0,0,1,1.9,4.2,17.462,17.462,0,0,1,.55,4.194,36.752,36.752,0,0,1-.72,7.1,40.574,40.574,0,0,1-2.59,7.076,26.315,26.315,0,0,1-3.25,5.3,41.941,41.941,0,0,1-4.49,5.88c-2.04,2.077-3.83,3.714-5.88,5.5a92.514,92.514,0,0,1-7.84,6.037c-1.7.9-5.24,3.283-6.86,3.92-3.13,1.715-4.07,2.323-6.96,3.714a28.2,28.2,0,0,1,6.01-4.018c.27-.5-1.64.765-1.36.265,1.22-.461,4.12-2.352,5.68-3.2,4.69-3.312,10.48-7.653,15.2-13.112a50.836,50.836,0,0,0,6.58-10.584,35.232,35.232,0,0,0,3.23-12.544,14.478,14.478,0,0,0-.18-3.479,12.082,12.082,0,0,0-1.06-3.263,5.666,5.666,0,0,0-2.02-2.3,3.732,3.732,0,0,0-2.73-.343,10.174,10.174,0,0,0-3.06,1.47,21.213,21.213,0,0,0-2.94,2.165,25.821,25.821,0,0,0-4.54,5.371,41.446,41.446,0,0,0-6.06,13.093,1.829,1.829,0,0,1-3.59-.52v-.059c0-2.548,0-4.949-.22-7.075a35.374,35.374,0,0,0-1.96-10.78c-.61-1.813-1.32-3.636-2.09-5.469s-1.55-3.694-2.35-5.566a30.125,30.125,0,0,0-4.73-7.2,38.251,38.251,0,0,0-6.99-5.88,85.7,85.7,0,0,0-8.04-4.733c-.14-.066-.27-.125-.41-.177a1.587,1.587,0,0,0-.24-.078h.19a.756.756,0,0,0,.32-.108,1.411,1.411,0,0,0,.39-.274,1.327,1.327,0,0,0,.27-.4,1.081,1.081,0,0,0,.11-.529v.147a1.857,1.857,0,0,1-.22.98,1.651,1.651,0,0,1-.55.6,1.852,1.852,0,0,1-1.73.147,1.8,1.8,0,0,1-.79-.686,1.489,1.489,0,0,1-.11-.2v-.069l-.11-.235-.24-.471-.53-.98c-.73-1.372-1.39-2.724-2.04-4.037-2.13-4.988-4.27-10.388-7.04-15.533s-6-10.153-9.1-14.818c-1.85-2.558-3.51-4.459-5.27-6.625-1.58-1.96.09-.784-1.14-2.42-.49-1.019-.8-1.764-1.16-2.538Z" transform="translate(-4615.996 9385.873)"/>
      <path id="Path_8236" data-name="Path 8236" d="M2651.62,336.438c-.26,1.147-2.43,4.6-2.87,5.88.09.784,1.44-1.244,1.21-.392.13.314,1.19-2.263,1.3-1.96s.54-.254.73-.137c-.77,1.647-2.18,3.92-1.9,4.332a51.211,51.211,0,0,0-2.82,5.478,111.393,111.393,0,0,1-9.86,13.436c-.98,1.186-2.01,2.45-2.7,3.361a249.145,249.145,0,0,1-18.41,16.915,17.336,17.336,0,0,0-3.31,3.469,6.834,6.834,0,0,0-1.82,3.332,2.778,2.778,0,0,0,.19,1.48,3.42,3.42,0,0,0,1.03,1.313c.49.431,1.14.882,1.78,1.343l1.84,1.3c1.2.823,2.31,1.539,3.34,2.117a11.344,11.344,0,0,0,3.41.715,12.475,12.475,0,0,0,1.72-.117,9.734,9.734,0,0,0,1.66-.431,14.8,14.8,0,0,0,5.42-3.852c2.68-2.175,5.33-5.194,8.57-7.654a64.345,64.345,0,0,1,9.11-5.448c3.07-1.206,6.69-2.8,8.69-3.411,1.73-.921,3.02-1.5,4.46-2.352a25.987,25.987,0,0,0,4.68-2.94,40.315,40.315,0,0,0,4.98-4.763c1.1-.833,3.05-3.165,4.09-3.92,1.84-1.783,2.34-2.41,4.07-3.92a14.125,14.125,0,0,1-3.19,4.067c0,.451.98-.823.98-.372-.8.529-2.38,2.43-3.34,3.283a61.815,61.815,0,0,1-4.58,5.184,36.078,36.078,0,0,1-6.13,4.9,57.638,57.638,0,0,1-7.95,4.714c-2.78,1.382-5.68,2.636-8.63,4.185a46.813,46.813,0,0,0-4.43,2.861,34.618,34.618,0,0,0-4.05,3.567c-2.62,2.6-5.15,5.518-8.34,7.664a16.439,16.439,0,0,1-4.13,1.7,13.233,13.233,0,0,1-4.82.255,21.372,21.372,0,0,1-7.96-3.244l-1.67-1.225c-.53-.4-1.1-.8-1.73-1.323a8.077,8.077,0,0,1-1.78-1.96,6.647,6.647,0,0,1-.92-2.8,7.408,7.408,0,0,1,.37-2.8,10.54,10.54,0,0,1,1.11-2.333,17.872,17.872,0,0,1,3.13-3.616c.38-.4.79-.794,1.2-1.166l1.2-1.1,2.48-2.224,5.12-4.538a116.427,116.427,0,0,0,9.45-9.173,70.291,70.291,0,0,0,7.75-9.163c2.42-3.39,4.67-6.987,6.81-10.368,1.07-1.96,1.81-3.626,2.67-5.439.83-1.607.68-.088,1.39-1.362a12.878,12.878,0,0,1,1.4-1.353Z" transform="translate(-4615.996 9385.873)"/>
      <path id="Path_8237" data-name="Path 8237" d="M2708.25,433.919c.29-.323,1.36-.127,1.66-.5.07-.48-.52-.549-.35-.8,0-.265-.58.137-.55-.128s-.13-.333-.14-.558c.37-.128.98-.147.9-.588a1.588,1.588,0,0,0,1.07-.667,7.738,7.738,0,0,0,2.84-1.5,1.9,1.9,0,0,0,.43-.765,12.055,12.055,0,0,0,2.57-4.125,2.3,2.3,0,0,0,.16-1.039c.67-1.2.36-2.754.82-3.871-.13-.5-.28-.98-.43-1.509l.36.774c-.08-.049-.2-.147-.23-.128l.21-.274a2.14,2.14,0,0,0,.33-.451l.12-.255a.836.836,0,0,0,.08-.147.846.846,0,0,0,0-.225s0,.059.08.059a2.271,2.271,0,0,0,.32.078,4.864,4.864,0,0,0,.98,0,1.607,1.607,0,0,1,.26,0h.19l.09.059a3.769,3.769,0,0,0,.9,1.7,4.834,4.834,0,0,0,1.51,1.176c.36.52.98.912,1.21,1.451.36.166.58.362.91.519a3.42,3.42,0,0,0,2.56.863c.31.245.98.117,1.31.343.61.068.76-.079,1.33,0-.11.46-.48.715-1.11.715,0,.294.35.127.32.431-.28-.2-.88,0-1.22-.127a6.9,6.9,0,0,1-3.66-.118,7.458,7.458,0,0,1-4.44-2.009,9.373,9.373,0,0,1-2.18-2.058,9.139,9.139,0,0,1-.88-1.372,4.366,4.366,0,0,1-.37-.921,1.512,1.512,0,0,1-.07-.363v-.558a2.377,2.377,0,0,1,.07-.373,2.3,2.3,0,0,1,.41-.725,2,2,0,0,1,.8-.549,2.1,2.1,0,0,1,.87-.127,2.464,2.464,0,0,1,.74.225l.29.187a2.555,2.555,0,0,1,.41.343c.17.174.33.357.49.548a1.661,1.661,0,0,1,.4.843c.14,1.049.34,2.166.46,3.107a17.214,17.214,0,0,1-.83,4.38,9.8,9.8,0,0,1-1.26,3.342,27.051,27.051,0,0,1-2.09,2.94,27.549,27.549,0,0,1-2.66,1.99,8.188,8.188,0,0,1-3.26,1.244c-.59.235-1.07.471-1.65.657s-.16-.529-.57-.529a2.84,2.84,0,0,1-.51-.608Z" transform="translate(-4615.996 9385.873)"/>
      <path id="Path_8238" data-name="Path 8238" d="M2642.32,325.07c.35.187.13.98.44,1.176.47.089.6-.362.83-.215s-.1-.461.17-.441.34-.108.55-.118c.13.333.08.823.52.843a1.632,1.632,0,0,0,.43,1.107c-.14,1.029.1,1.96,0,3.029a2.113,2.113,0,0,0,.29.764,36.9,36.9,0,0,1-.07,4.586,2.32,2.32,0,0,0,.09.98c-.41,1.157-.05,2.519-.65,3.45a17.534,17.534,0,0,0,.54,2.871,14.483,14.483,0,0,0-.16,4c-.24.578-.35,1.323-.8,1.676a4.2,4.2,0,0,1-.28.98,4.83,4.83,0,0,0-.83,2.254c-.28.215-.28.774-.59.98a6.023,6.023,0,0,1-.44.98.751.751,0,0,1-.33-.98c-.27-.1-.2.205-.49.107.25-.137.22-.6.4-.8a10.58,10.58,0,0,1,.12-2.636,13.43,13.43,0,0,1-.08-3.411c-.18-1.284-.17-2.754-.43-4.008a7.354,7.354,0,0,0,0-2.881c.28-.98.08-1.96.34-3.038-.23-1.519.12-3.342-.2-4.832.19-1.381-.25-3.018,0-4.488a8.227,8.227,0,0,0-.43-1.078c-.07-.323.54-.1.54-.363a4.631,4.631,0,0,1,.52-.49Z" transform="translate(-4615.996 9385.873)"/>
      <path id="Path_8239" data-name="Path 8239" d="M2646.72,384.027c.35.383.15,1.8.47,2.264.47.2.59-.656.83-.362.26.058-.12-.882.15-.824s.34-.186.55-.186c.14.618.11,1.558.54,1.607a5.232,5.232,0,0,0,.47,2.1c-.1,1.96.19,3.616.15,5.7a8,8,0,0,0,.34,1.451c0,2.518.41,5.537.27,8.633a8.5,8.5,0,0,0,.16,1.813c-.33,2.2.06,4.822-.61,6.645.12,1.852-.06,3.979,0,5.635-.34,1.293-.72,2.705-1.13,4.037a32.145,32.145,0,0,0-.98,3.45c-.55.931-.83,2.029-1.27,2.568a11.607,11.607,0,0,0-.12,1.44,2.732,2.732,0,0,0,.15,1.6,2.427,2.427,0,0,0,1.31,1.332,1.352,1.352,0,0,0,.74.412,5.89,5.89,0,0,1,.86.235,2.136,2.136,0,0,0,.92-.186,4.525,4.525,0,0,0,.79-.461c.15.52-.38,1.235-1.41,1.353-.09.333.56,0,.51.353a5.685,5.685,0,0,1-2.01-.147,3.941,3.941,0,0,1-2.58-1.157,5.562,5.562,0,0,1-1.38-2.763,7.124,7.124,0,0,1-.24-3.548,17.443,17.443,0,0,1,.98-3.391c.3-1.2.63-2.371.85-3.606a20.922,20.922,0,0,0,.37-3.616,16.869,16.869,0,0,0,.33-5.3c.3-1.774,0-3.734.24-5.753-.35-2.871-.16-6.4-.58-9.251.11-2.646-.41-5.811-.26-8.624-.12-.784-.32-1.411-.47-2.1s.54-.167.54-.676a3.4,3.4,0,0,1,.52-.677Z" transform="translate(-4615.996 9385.873)"/>
      <path id="Path_8240" data-name="Path 8240" d="M2665.94,419.366c-.25-.255.17-.6,0-.862-.4-.245-.66,0-.82-.226s0,.3-.28.177-.34-.089-.54-.177c0-.225.16-.48-.23-.656a.826.826,0,0,0-.1-.775c.4-.5.38-1.087.71-1.666a1.087,1.087,0,0,0-.13-.529c.35-.725.36-1.715.84-2.6a.794.794,0,0,0,0-.568c.54-.588.32-1.46.98-1.96a5.474,5.474,0,0,0-.39-1.784,4.019,4.019,0,0,0,.14-2.352c.2-.313.26-.7.6-.98l.98-.656a.318.318,0,0,1,.25-.055.339.339,0,0,1,.21.143.364.364,0,0,1,0,.147h-.07a.776.776,0,0,0-.26-.049c-.21,0,.06,0,.2-.177s.05-.147.06,0,0-.088,0-.058a.25.25,0,0,0,.1.068c.14.069,0,0,0,.069a.976.976,0,0,1-.2.215.247.247,0,0,0,0,.236.583.583,0,0,0,.21.2.4.4,0,0,1-.4.363.556.556,0,0,1-.49-.441c-.32.059,0,.333-.29.431,0-.333-.22-.823,0-1.1a1.144,1.144,0,0,1,.18-.8,1.217,1.217,0,0,1,.98-.5,1.3,1.3,0,0,1,.98.549,1.662,1.662,0,0,1,.3.862,1.306,1.306,0,0,1,0,.873,1.388,1.388,0,0,1-.85.8l.79-.98a6.745,6.745,0,0,1,.05,1.49c.22.862.18,1.832.36,2.7a3.962,3.962,0,0,0-.21,1.96c-.37.578-.3,1.3-.71,1.96,0,1.039-.66,2.117-.68,3.146-.49.8-.5,1.96-1.12,2.783a4.561,4.561,0,0,0,.07.823c0,.225-.52-.167-.61,0A4.327,4.327,0,0,1,2665.94,419.366Z" transform="translate(-4615.996 9385.873)"/>
      <path id="Path_8241" data-name="Path 8241" d="M2675.4,414.976c-.4,0-.61-.784-.98-.843-.46.137-.34.618-.62.6s.33.382.08.48-.23.265-.42.382c-.28-.235-.5-.7-.89-.509-.3-.373-.58-.755-.98-.814-.41-.98-1.09-1.734-1.56-2.812a2.445,2.445,0,0,0-.65-.588,35.455,35.455,0,0,1-2.17-4.361,2.916,2.916,0,0,0-.52-.872c-.19-1.265-1.14-2.411-.98-3.568a20.65,20.65,0,0,0-1.78-2.538,15.837,15.837,0,0,0-1.56-3.92c0-.666-.24-1.431,0-1.96a6.456,6.456,0,0,1-.13-.98,5.245,5.245,0,0,0-.17-2.518c.18-.324-.05-.873.17-1.176a5.218,5.218,0,0,1,0-1.118.783.783,0,0,1,.71.833c.31,0,.11-.284.42-.294-.17.226,0,.657,0,.98a12.639,12.639,0,0,1,.98,2.6,16.87,16.87,0,0,1,1.49,3.264c.71,1.156,1.31,2.567,2.09,3.655a7.709,7.709,0,0,0,1.27,2.725c.17.98.83,1.9,1.08,3.008.92,1.3,1.46,3.166,2.49,4.381.5,1.362,1.72,2.656,2.29,4.086a6.889,6.889,0,0,0,.98.765c.22.264-.42.362-.29.607A3.779,3.779,0,0,1,2675.4,414.976Z" transform="translate(-4615.996 9385.873)"/>
      <path id="Path_8242" data-name="Path 8242" d="M2652.48,258.627c-.87.343-4.06.166-5.11.529-.47.49,1.43.559.77.813-.15.265,1.96-.147,1.82.128s.38.333.38.549c-1.39.137-3.46.176-3.58.617a15.624,15.624,0,0,0-4.51.833,22.4,22.4,0,0,0-10.98,4.106,15.779,15.779,0,0,0-2.16,2.225c-2.03,1.793-4.12,4.253-7.23,6.233a15.984,15.984,0,0,1-5.21,2.067,49.75,49.75,0,0,1-5.22.745,12.751,12.751,0,0,0-3.55.872,7.436,7.436,0,0,0-4.9,3.391,5.014,5.014,0,0,0-.52,2.636,26.453,26.453,0,0,0,.33,2.989,68.425,68.425,0,0,0,4.35,10.957c.47,1.293.98,2.626,1.6,3.92s1.24,2.7,1.88,3.841a5.606,5.606,0,0,0,2.14,2.313,6.14,6.14,0,0,0,2.7.647,23.048,23.048,0,0,0,3.67.274,14.608,14.608,0,0,1,3.43.373,22.979,22.979,0,0,1,4.13.6c1.58.48,2.88.891,4.33,1.44a42.907,42.907,0,0,1,5.1,2.215,28.471,28.471,0,0,1,3.57,2.656,24.92,24.92,0,0,1,3.24,2.94c-.85-.177-1.86-.98-3.38-2.117-.38.078.7.715.3.794a18.5,18.5,0,0,0-2.8-2.176,38.364,38.364,0,0,0-10.36-3.577,40.917,40.917,0,0,0-6.86-.117c-1.18.068-2.42.156-3.73.107a11.258,11.258,0,0,1-4.18-.842,8.1,8.1,0,0,1-3.77-3.127,40.059,40.059,0,0,1-2.23-3.969c-1.35-2.646-2.57-5.341-3.65-7.84l-1.96-6.085c-.31-1.059-.62-2.1-.92-3.107a16.344,16.344,0,0,1-.66-3.244,8.862,8.862,0,0,1,.87-3.92,9.363,9.363,0,0,1,2.51-3.146,13.98,13.98,0,0,1,6.91-2.94c3.36-.793,6.86-.833,9.69-2.165s5.19-3.871,7.46-6.223a40.764,40.764,0,0,1,3.81-3.087,23.086,23.086,0,0,1,4.66-2.49,30.954,30.954,0,0,1,10.1-2.058c1.8-.225,3.23-.46,4.81-.637s.33.53,1.49.52A12.741,12.741,0,0,1,2652.48,258.627Z" transform="translate(-4615.996 9385.873)"/>
      <path id="Path_8243" data-name="Path 8243" d="M2655.99,260.322c-.08-.667,1.07-2.382,1.18-3.107-.23-.519-.98.49-.98,0-.17-.225-.57,1.2-.74.98s-.42.069-.62,0c.33-.911,1.11-2.1.79-2.411a17,17,0,0,0,1.49-2.94,41.584,41.584,0,0,1,6.05-6.468l.44-.441.11-.107.19-.167a4.71,4.71,0,0,1,2.17-.96,4.355,4.355,0,0,1,2.53.735,4.166,4.166,0,0,1,.98.98l.19.284.12.2.23.353a22.217,22.217,0,0,1,1.53,3.106,19.34,19.34,0,0,1,1.04,3.5,21.109,21.109,0,0,1,.36,3.636,13.426,13.426,0,0,0,.29,2.606c-.17,3.009,1.46,6.331,1.84,9.026,1.12,2.431,2.22,5.273,3.35,7.282a94.562,94.562,0,0,0,3.92,10.417,26.833,26.833,0,0,1,1.03,4.773c.35.98.48,1.715.73,2.567a22.714,22.714,0,0,0,.61,2.94,23.306,23.306,0,0,0,1.14,3.352,13.606,13.606,0,0,0,1.03,2.616,4.46,4.46,0,0,0,.98,1.108,11.449,11.449,0,0,0,1.09.862c-.62.2-1.62-.176-2.45-1.293-.36.049.35.646,0,.7a18.152,18.152,0,0,1-1.33-2.283,15.939,15.939,0,0,1-1.63-3.264c-.46-1.195-.91-2.459-1.36-3.724-1.38-2.861-2.44-5.684-3.66-8.967-1.5-3.312-2.94-7.222-4.49-10.466a70.6,70.6,0,0,0-2.94-7.722c-.35-1.372-.79-2.793-1.13-4.322a19.5,19.5,0,0,1-.48-4.694,31.287,31.287,0,0,0-1.11-6.37,16.43,16.43,0,0,0-1.26-2.94c-.13-.226-.27-.451-.41-.667l-.1-.166-.07-.108-.07-.059a.377.377,0,0,0-.3-.059.344.344,0,0,0-.26,0l-.15.118-.28.235-.56.49a28.3,28.3,0,0,0-2.17,2.185c-1.41,1.549-2.66,3.234-3.85,4.822a21.111,21.111,0,0,0-1.16,2.764c-.35.8-.58-.079-.92.558A8.212,8.212,0,0,1,2655.99,260.322Z" transform="translate(-4615.996 9385.873)"/>
      <path id="Path_8244" data-name="Path 8244" d="M2646.2,385.663a15.229,15.229,0,0,0-10.72,8.5,10.829,10.829,0,0,0-1.04,4.684c.17,6.282,6.93,10.114,9.92,15.68a39.3,39.3,0,0,1-13.32,7.9,6.221,6.221,0,0,0-2.29,1.146,6.055,6.055,0,0,0-1.3,3.92c-.11,1.431-.14,3.136.98,4.028a4.387,4.387,0,0,0,2.75.627c3.26,0,6.5,0,9.75-.107a2.61,2.61,0,0,0,3.19-2.646,142.992,142.992,0,0,0,.63-43.61" transform="translate(-4615.996 9385.873)"/>
      <path id="Path_8245" data-name="Path 8245" d="M2645.99,384.645c-.44.274-1.5.529-2.53.98a8.172,8.172,0,0,0-2.43,1.4c-.19.647,1.57-.176,1.08.353,0,.147.42-.088.86-.333s.89-.431.87-.274c-.13.352.46.2.53.411-1.23.51-2.94,1.519-2.82,1.96a8.219,8.219,0,0,0-2.94,3.215,10.537,10.537,0,0,0-2.38,4.9,8.181,8.181,0,0,0,.98,5.262,10.893,10.893,0,0,0,1.96,2.333c.93,1.205,2.1,2.44,3.32,3.822a27.023,27.023,0,0,1,3.59,4.841,1.964,1.964,0,0,1-.39,2.4,35.409,35.409,0,0,1-7.71,5.38c-1.4.774-2.85,1.441-3.81,1.96l-1.89.627c-.66.216-1.3.4-1.72.578a1.524,1.524,0,0,0-.77.569,3.24,3.24,0,0,0-.41,1.166c-.1.49-.16,1.127-.22,1.686a8.7,8.7,0,0,0,0,1.44,2,2,0,0,0,.22.755.965.965,0,0,0,.55.451,22.987,22.987,0,0,0,2.85-.069l3.18-.167,3.08-.2,1.44-.117a5.351,5.351,0,0,0,1.15-.177,2.17,2.17,0,0,0,.36,0,.625.625,0,0,0,.08.128.445.445,0,0,0,.07.078c.02.01-.26-.186-.17-.147a5.168,5.168,0,0,0,.35-1.5c.27-1.47.49-2.94.67-4.43.36-2.94.56-5.723.62-7.967.38-2.509.58-5.655.98-7.3.06-1.578.16-2.7.22-4.048a48.923,48.923,0,0,0,.16-9.976c.18-1.1-.11-3.469,0-4.469-.06-2.028-.23-2.636-.26-4.459a7.793,7.793,0,0,1,.98,4.008c.31.245.06-1.048.38-.8-.14.764.17,2.724.1,3.753a81.179,81.179,0,0,1,.76,11.554,90.22,90.22,0,0,1-.27,14.975c-.12,2.822-.42,5.88-.81,8.82l-.13,1.127c-.05.362-.09.735-.2,1.215a4.509,4.509,0,0,1-.63,1.578,3.564,3.564,0,0,1-1.55,1.293,7.958,7.958,0,0,1-2.73.51l-2.11.127c-1.96-.078-4.23-.068-6.45,0h-1.73a6.039,6.039,0,0,1-2.24-.46,4.272,4.272,0,0,1-1.96-1.833,5.9,5.9,0,0,1-.66-2.087,10.687,10.687,0,0,1,.06-1.96c.06-.578.12-1.127.22-1.774a7.969,7.969,0,0,1,.64-2.078,5.056,5.056,0,0,1,1.68-1.96,7.818,7.818,0,0,1,1.96-.98l1.55-.548c.98-.383,2.05-.794,3.07-1.235a44.909,44.909,0,0,0,8.48-5.88l-.36,2.146c-1.51-2.8-4.11-5.223-6.35-7.722a22.586,22.586,0,0,1-2.79-4.391,11.172,11.172,0,0,1-.98-5.811,14.044,14.044,0,0,1,1.87-5.478,15.606,15.606,0,0,1,3.59-4.175,19.227,19.227,0,0,1,4.4-3.205c1.52-.647.54.353,1.77,0A8.266,8.266,0,0,1,2645.99,384.645Z" transform="translate(-4615.996 9385.873)"/>
      <path id="Path_8246" data-name="Path 8246" d="M2638.2,275.081c-.33-.079-.07-.118-.33-.235-.44-.177-.62-.128-.82-.226s0,.157-.21.079a3.78,3.78,0,0,0-.56-.1c-.08-.157,0-.324-.34-.49a.962.962,0,0,0-.09-.686c.45-.383.67-.98,1.52-1.186a2.908,2.908,0,0,0,.5-.412,3.618,3.618,0,0,1,1.69.245,2.392,2.392,0,0,1,.88.676,1.888,1.888,0,0,1,.42.98c.07.236.09.422.22.51a1.09,1.09,0,0,0-.14.637.61.61,0,0,1-.32.608,8.516,8.516,0,0,1,.42,1.391,11.043,11.043,0,0,1-1.55,1.96c-.47.049-1.05.147-1.38-.274a1.2,1.2,0,0,1-.64-.245,10.581,10.581,0,0,0-.76-1.127c.13-.245,0-.431.2-.608s0-.245.23-.353c.42.1.56.049.47.108a4.291,4.291,0,0,1,.46-.117c-.21,0-.14,0-.27.078.18-.1.17-.108.19-.088a.269.269,0,0,0-.06-.294s-.06,0-.06-.049a.827.827,0,0,0-.55-.343c.19,0,.08-.118-.08-.216a.258.258,0,0,0,.12-.255c0-.107,0-.215.1-.215-.05,0-.05.108,0,.245a.975.975,0,0,0,.35.323,4.381,4.381,0,0,1,.58.255c.29-.225.74-.245.53-.431a2.409,2.409,0,0,0,.38.068,4.2,4.2,0,0,0-.55-.127Z" transform="translate(-4615.996 9385.873)"/>
      <path id="Path_8247" data-name="Path 8247" d="M2632.45,264.467c-.36-.127-.17-.755-.46-.98-.47-.078-.61.314-.85.2s.1.4-.15.392-.34.108-.55.127c-.15-.294-.09-.764-.53-.784a1.776,1.776,0,0,0-.37-1.087,25.841,25.841,0,0,1,.43-2.852,2.549,2.549,0,0,0-.13-.774,20.584,20.584,0,0,1,1.21-3.92,1.762,1.762,0,0,0,.17-.814,8.9,8.9,0,0,0,.83-1.6,2.751,2.751,0,0,1,1.39-1.431,2.079,2.079,0,0,1,.47-.47,2.161,2.161,0,0,1,.98-.392,3.767,3.767,0,0,1,.78,0h.37a14.9,14.9,0,0,1,1.59.137,5.433,5.433,0,0,1,2.15,2.254,15.1,15.1,0,0,0,.86,1.666,2.912,2.912,0,0,1-.1,1.5,4.089,4.089,0,0,1,.16.774,2.73,2.73,0,0,0,.47,1.96c-.11.314.21.657.1.98.11.422.25.471.31.882a.627.627,0,0,1-.53.015.618.618,0,0,1-.35-.4c-.27.128,0,.284-.29.4.09-.255-.22-.539-.21-.794a5.9,5.9,0,0,1-1.39-1.96,7.023,7.023,0,0,1-1.56-2.754,2.662,2.662,0,0,0-.79-.98,2.084,2.084,0,0,0-.88-.078,1.479,1.479,0,0,0-.49-.225l-.17-.049a1.36,1.36,0,0,0,.45,0c.44-.147.43-.226.37-.089a1.607,1.607,0,0,0-.09.3c-.48.255-.55,1.108-1.07,1.96-.17,1.333-.98,2.715-.98,3.989-.47,1.068-.28,2.411-.52,3.5a2.727,2.727,0,0,0,.41.8c.07.235-.53.108-.53.314A3.28,3.28,0,0,0,2632.45,264.467Z" transform="translate(-4615.996 9385.873)"/>
      <path id="Path_8248" data-name="Path 8248" d="M2685.08,297.277a.919.919,0,0,1-.21.7.512.512,0,0,1-.39.177.6.6,0,0,1-.45-.2.26.26,0,0,1-.07-.167.987.987,0,0,1,0,.343,1.091,1.091,0,0,0,0,.441c.37.372.78-.363.9,0,.11.069.15-.157.19-.392s0-.529.14-.49a.189.189,0,0,0,.17.019.175.175,0,0,0,.12-.127c.07-.108.08-.294.18-.333a2.044,2.044,0,0,1,.12.98l-.11.627c-.06.373-.09.686.09.8a21.129,21.129,0,0,0-.98,2.352,33.94,33.94,0,0,1-4.53,3.92,9.221,9.221,0,0,0-.98,1.127,57.886,57.886,0,0,1-7.23,4.9,8.674,8.674,0,0,0-1.5.98c-2.09.774-4.16,2.362-6.04,2.636-1.51.98-3.37,1.96-4.64,2.871-2.42.8-5.21,1.96-7.07,2.764a11.042,11.042,0,0,1-3.33.343,14.938,14.938,0,0,1-1.78.294c-.74,0-1.38,0-2.09.059a9.7,9.7,0,0,1-2.69-.108c-.24-.176-.64-.333-.98-.559a1.576,1.576,0,0,1-.76-.842.971.971,0,0,1,0-1.206.719.719,0,0,1,.46-.206.413.413,0,0,1,.46.285c-.3-.059-.33.166-.41.264s0,.118,0,.1a.643.643,0,0,0,0,.2.272.272,0,0,0,.17-.166.658.658,0,0,0,.23-.059c-.12,0-.14.078,0,.215s.35.275.49.4a9.488,9.488,0,0,0,4.43-.421c1.96-.853,3.81-1.441,5.98-2.215,2.15-1.049,4.67-2.107,6.67-3.332a20.937,20.937,0,0,0,4.78-2.421c1.7-.607,3.29-1.724,5.09-2.538,2.28-1.666,5.29-3.283,7.33-5.213a26.539,26.539,0,0,0,3.23-2.539,18.683,18.683,0,0,0,2.56-2.665,2.449,2.449,0,0,0,.18-.755,1.85,1.85,0,0,0,0-.333v-.157l-.06.059a.669.669,0,0,0,.13.451.26.26,0,0,0,.24.117.383.383,0,0,1,.25,0l.17.128a1.977,1.977,0,0,0,.53.343.889.889,0,0,0,.92-.294,1.277,1.277,0,0,0,.3-.51A.9.9,0,0,0,2685.08,297.277Z" transform="translate(-4615.996 9385.873)"/>
      <path id="Path_8249" data-name="Path 8249" d="M2610.55,284.027a32.944,32.944,0,0,0,2.94-6.86,15.744,15.744,0,0,0,.58-2.019c-1.8.285-3.63.481-5.41.882-3.47.8-7.1,2.94-7.84,6.4a11.308,11.308,0,0,0,.48,4.968c.2.755.4,1.51.63,2.254C2605.16,288.114,2609.38,286.154,2610.55,284.027Z" transform="translate(-4615.996 9385.873)"/>
      <path id="Path_8250" data-name="Path 8250" d="M2611.44,284.537c-.14-.431.62-1.313.53-1.794-.34-.372-.78.157-.87-.156s-.26.646-.47.48-.36-.049-.55-.167c.14-.47.52-1.078.16-1.313a2.621,2.621,0,0,0,.3-1.578,10.654,10.654,0,0,0,.82-1.96c.21-.676.47-1.421.7-2.087a3.188,3.188,0,0,0,0-1.068v-.138l2.32,2.382c-1.96.235-4.28.676-6.29,1.039a2.922,2.922,0,0,0-1.12.509,5.23,5.23,0,0,0-2.09.912,15.593,15.593,0,0,1-1.69,1.117,3.645,3.645,0,0,0-.39,3.067c-.23,1.451.61,3.773,1.2,5.184v.128l-2.94-1.333a7.4,7.4,0,0,1,2.44-.5,9.951,9.951,0,0,1,1.31-.46,6.825,6.825,0,0,0,3.15-1.245c.46,0,.98-.549,1.45-.559a9.764,9.764,0,0,0,1.17-.98c.24.432,0,.98-.57,1.431.13.284.41-.137.54.137-.35.059-.84.618-1.23.716a12.242,12.242,0,0,1-3.38,2.342,19.244,19.244,0,0,1-3.43,2.127,1.181,1.181,0,0,1-1.59-.52.7.7,0,0,1-.08-.2c-.1-.362-.21-.745-.32-1.127a21.072,21.072,0,0,1-1.07-2.989,12.06,12.06,0,0,1-.43-3.587,13.51,13.51,0,0,1,1.07-2.665,11.3,11.3,0,0,1,1.57-2.2,13.525,13.525,0,0,1,4.74-2.47c2.41-1.137,5.33-.98,7.44-1.656a1.7,1.7,0,0,1,2.12,1.137,1.6,1.6,0,0,1,0,.754l-.06.363c-.42,1.088-.71,2.342-1.08,3.42a15.082,15.082,0,0,1-1.4,3.352c-.21.637-.31,1.185-.47,1.764s-.53-.157-.75.2A4.173,4.173,0,0,1,2611.44,284.537Z" transform="translate(-4615.996 9385.873)"/>
      <path id="Path_8251" data-name="Path 8251" d="M2606.21,286.605c.4.079.5.98.88,1.088.48-.059.43-.588.7-.509s-.27-.451,0-.52.27-.225.48-.313c.25.3.4.833.81.7.25.431.49.872.86.98.28,1.117.88,1.96,1.25,3.136a2.634,2.634,0,0,0,.61.686c.5,1.411,1.45,2.94,1.96,4.734a3.092,3.092,0,0,0,.51.98,2.728,2.728,0,0,0,.1.49l.05.245v.127h-.1l-.7.333c-.48.255-.5.343-.53.373s0,0-.06-.245a2.555,2.555,0,0,0-.25-.451l-.31-.431-.05-.1h0l.27-.187a3.288,3.288,0,0,1,2.52-.627,19.485,19.485,0,0,1,3.82-.382,10.289,10.289,0,0,0,2.15.6,2.627,2.627,0,0,0,1.47-.147c.43.147.98,0,1.43.215.27-.137.53-.166.78-.284a2.269,2.269,0,0,0,1.83-1.274c.37-.1.5-.647.85-.794.28-.441.22-.607.49-1.048a.849.849,0,0,1,.39.53.825.825,0,0,1-.13.646c.26.157.24-.245.5-.1-.25.166-.35.745-.63.98a4.883,4.883,0,0,1-1.89,2.734,5.231,5.231,0,0,1-4.09,1.842c-1.77.275-3.56-.284-4.78-.166a2.331,2.331,0,0,0-2.2.157.815.815,0,0,0-.39.078l-.08.049-.32.216a2.391,2.391,0,0,1-.89.362,2.1,2.1,0,0,1-1.6-.382,2.357,2.357,0,0,1-.69-.823c-.09-.2-.1-.226-.13-.3l-.15-.412a6.742,6.742,0,0,1-.26-.872c-.91-1.48-1.41-3.528-2.36-4.978-.42-1.519-1.53-3.1-1.96-4.734a10.085,10.085,0,0,0-.84-.98c-.2-.323.47-.294.37-.578A3.114,3.114,0,0,1,2606.21,286.605Z" transform="translate(-4615.996 9385.873)"/>
      <path id="Path_8252" data-name="Path 8252" d="M2605.14,302.167c.15-.294.21,0,.39-.245.22-.411.16-.617.3-.794s-.17,0-.06-.225a4.934,4.934,0,0,0,.18-.539c.16-.059.3.088.51-.294a.564.564,0,0,0,.58-.118c.24.353.61.343.8.628a.543.543,0,0,0,.33-.128.739.739,0,0,0,.36.206h.08c-.01,0,0,0,0,.049v.167a1.164,1.164,0,0,0,0,.264.414.414,0,0,0,0,.157v-.108l.08.177a.806.806,0,0,0-.07-.147,1.793,1.793,0,0,0-.13-.226l.24.147a2.007,2.007,0,0,0,0-.98,1.1,1.1,0,0,0,.68-.911c.26,0,.43-.137.82.059.08-.079.22-.059.32-.089a.834.834,0,0,0,.89-.147c.25.108.3-.058.56.069s.19-.088.44-.059c.29.3.34.471.17.51.21.2.19.059.4.255-.21-.1-.23.068-.4,0a1.037,1.037,0,0,1-.39.744,1.466,1.466,0,0,1-.42,1.049c0,.49-.32.882-.35,1.392-.32.068-.48.46-.83.911-.58.147-1.31.666-2.07.392a2.1,2.1,0,0,1-1.4-.255,2.605,2.605,0,0,0-.98-.392c-.3-.451-.88-.382-.98-.725a.758.758,0,0,0-.29.274,5.662,5.662,0,0,0,.18-.539A2.194,2.194,0,0,1,2605.14,302.167Z" transform="translate(-4615.996 9385.873)"/>
      <path id="Path_8253" data-name="Path 8253" d="M2615.04,388.447h.16c.01,0-.06,0-.06-.059h0s.07-.108,0-.157a.357.357,0,0,0,0-.2,1.7,1.7,0,0,1,.21-.412.52.52,0,0,0,0-.176c.12-.128.18-.422.4-.461a.153.153,0,0,0,.07-.127c.21.068.26-.187.51,0,0-.147.15-.236.16-.422a.82.82,0,0,0,.52-.127.636.636,0,0,0,.53.176.521.521,0,0,0,.39.069h.16a.63.63,0,0,0,.13-.049s-.05.059-.09.1h0a.374.374,0,0,1-.09.068.978.978,0,0,1-.21.3,1,1,0,0,1-.24.451c-.06.235-.18.4-.24.627-.13,0-.22.137-.27.255-.18,0-.25.108-.43.059-.13.166-.45.088-.61.206a2.486,2.486,0,0,1-.73-.079h-.18c-.07,0,0,0-.08-.049Z" transform="translate(-4615.996 9385.873)"/>
      <path id="Path_8254" data-name="Path 8254" d="M2619.21,391.338a.954.954,0,0,0,.22-.147c.03-.049-.1,0-.09,0s-.06.088-.06.069h0s.08-.177,0-.206a.6.6,0,0,0,.05-.294,2.994,2.994,0,0,1,.28-.637.854.854,0,0,0,0-.226c.16-.235.28-.637.6-.823,0-.059.1-.108.1-.186.31,0,.41-.392.75-.3a3.5,3.5,0,0,0,.31-.608,2.509,2.509,0,0,0,.8-.4,1.272,1.272,0,0,1,.5.068.982.982,0,0,1,.23,0,1.1,1.1,0,0,0,.56-.059c.07,0,.18-.049.23-.049a1.079,1.079,0,0,0,.2-.1,1.141,1.141,0,0,1-.15.137h0c-.04.041-.09.081-.13.117a3.034,3.034,0,0,1-.4.441,2.073,2.073,0,0,1-.43.627c-.11.285-.31.53-.41.833-.19,0-.32.255-.41.432-.23,0-.33.235-.59.274-.17.265-.62.353-.82.588a6.711,6.711,0,0,1-.98.373.7.7,0,0,1-.24.1h-.1Z" transform="translate(-4615.996 9385.873)"/>
      <path id="Path_8255" data-name="Path 8255" d="M2619.51,286.6h.06v-.128a.3.3,0,0,0,0-.186,1.16,1.16,0,0,1,0-.372.448.448,0,0,0-.06-.157c.06-.128,0-.382.17-.431a.123.123,0,0,0,0-.118c.19.049.13-.186.4,0v-.392a.457.457,0,0,0,.37-.147.939.939,0,0,1,.35.127h.15a.438.438,0,0,0,.33,0h.14l.08-.058v.088h0v.068a.7.7,0,0,1-.07.285.718.718,0,0,1,0,.411v.559c-.12,0-.14.137-.14.245-.15,0-.15.117-.33.088,0,.157-.33.108-.42.225a2.079,2.079,0,0,1-.61,0,.75.75,0,0,1-.15,0h-.08Z" transform="translate(-4615.996 9385.873)"/>
      <path id="Path_8256" data-name="Path 8256" d="M2624.94,284.361s.09.049.11,0,0-.049,0-.068h0v-.128a.519.519,0,0,0,0-.176,1.133,1.133,0,0,1,.15-.3.468.468,0,0,0,0-.167c.09-.068.16-.313.31-.274s0,0,0-.088c.14.137.18-.088.33.166.05-.117.13-.156.15-.323a.385.385,0,0,0,.34.059,1.241,1.241,0,0,1,.23.294.4.4,0,0,1,.1.088.412.412,0,0,0,.25.2.126.126,0,0,1,.11.069h.09l-.07.049h-.06a.871.871,0,0,1-.16.205.732.732,0,0,1-.19.334c-.06.186-.15.294-.2.49-.09-.059-.16,0-.21.127-.1-.1-.16,0-.28-.1-.1.108-.3-.069-.41,0a2.4,2.4,0,0,1-.48-.323.132.132,0,0,1-.11-.089c-.04-.088,0,0,0-.068Z" transform="translate(-4615.996 9385.873)"/>
      <path id="Path_8257" data-name="Path 8257" d="M2623.97,289.77s.08.049.08,0v-.059a.2.2,0,0,0,0-.108v-.166a1.173,1.173,0,0,1,0-.265l-.06-.147c0-.068-.05-.274,0-.255s0,0,0-.078c.14.118.07-.078.25.137a.98.98,0,0,0-.05-.294c.11.079.18.069.21,0a2.485,2.485,0,0,1,.25.255.306.306,0,0,1,.09.078.5.5,0,0,0,.23.157.09.09,0,0,1,.08.049h0v.186a.727.727,0,0,1,0,.294c.05.167,0,.265.1.432-.08,0-.07.049-.06.127-.1-.088-.08,0-.2-.078,0,.1-.2-.059-.23,0a2.315,2.315,0,0,1-.41-.265.292.292,0,0,1-.09-.069v-.058Z" transform="translate(-4615.996 9385.873)"/>
      <path id="Path_8258" data-name="Path 8258" d="M2635.12,280.118a1.558,1.558,0,0,0,.29,0c0-.049-.09,0-.06-.059s-.1,0-.1,0,.17-.118.16-.167a.68.68,0,0,0,.2-.225,3.731,3.731,0,0,1,.64-.441,1.281,1.281,0,0,0,.15-.186,2.919,2.919,0,0,1,1.05-.412.35.35,0,0,0,.22-.108c.3.118.61-.127.87.137a4.279,4.279,0,0,0,.67-.352,3.03,3.03,0,0,0,.98.1c.15.117.33.166.42.343a2.222,2.222,0,0,1,.24.117,1.075,1.075,0,0,0,.53.265c.06.049.2.068.25.108a.984.984,0,0,0,.23,0h-.41a3.514,3.514,0,0,1-.62.137,2.988,2.988,0,0,1-.79.274,8.5,8.5,0,0,0-.88.48.99.99,0,0,0-.65.138c-.22-.089-.44,0-.7-.069-.33.137-.78,0-1.11.1a8.533,8.533,0,0,1-1.13-.157,1.218,1.218,0,0,1-.27,0c-.1,0,0,0-.11-.049Z" transform="translate(-4615.996 9385.873)"/>
      <path id="Path_8259" data-name="Path 8259" d="M2714.89,412.251a1.8,1.8,0,0,0,.24.294c.06,0,0-.118,0-.1s-.12-.088-.1-.088h0s.23.117.28.088a.884.884,0,0,0,.37.118,4.39,4.39,0,0,1,.85.539.962.962,0,0,0,.28.1,3.885,3.885,0,0,1,1.03,1.136.831.831,0,0,0,.22.245c.05.412.43.735.29,1.137.23.245.38.578.61.784a7.52,7.52,0,0,0,.21,1.333c-.08.225-.09.47-.25.627a1.168,1.168,0,0,1-.08.314,2.006,2.006,0,0,0-.18.764,1.307,1.307,0,0,1-.09.324,1.635,1.635,0,0,0,0,.313v-.235a1.173,1.173,0,0,1,0-.265c-.07-.235-.15-.519-.22-.8a6.943,6.943,0,0,1-.43-.98,7.859,7.859,0,0,0-.73-.98,1.364,1.364,0,0,0-.38-.735c0-.294-.23-.52-.26-.853-.29-.333-.39-.9-.7-1.225-.13-.411-.44-.8-.6-1.284a1.873,1.873,0,0,1-.19-.3v-.128a.556.556,0,0,0-.17-.137Z" transform="translate(-4615.996 9385.873)"/>
      <path id="Path_8260" data-name="Path 8260" d="M2714.44,404.606a1.231,1.231,0,0,0,.25.167s-.05-.088,0-.088h.14a.947.947,0,0,0,.31,0,2.772,2.772,0,0,1,.79.117.7.7,0,0,0,.25,0,2.75,2.75,0,0,1,1.09.559.388.388,0,0,0,.23.118c.12.333.51.45.45.833.26.117.44.333.7.421a4.412,4.412,0,0,0,.42.98.905.905,0,0,1-.12.559,1.164,1.164,0,0,1,0,.264,1.651,1.651,0,0,0,0,.627v.255a1,1,0,0,0,0,.245,1.331,1.331,0,0,1-.1-.206c-.04-.107,0,.059,0,.049a1.889,1.889,0,0,1-.07-.2l-.35-.529a4.009,4.009,0,0,1-.57-.588,4.961,4.961,0,0,0-.81-.5.75.75,0,0,0-.44-.411c0-.235-.27-.324-.33-.578-.3-.147-.46-.579-.76-.726a2.113,2.113,0,0,1-.69-.852.972.972,0,0,1-.21-.2c-.05-.079,0,0-.05-.1a.268.268,0,0,0-.13-.226Z" transform="translate(-4615.996 9385.873)"/>
      <path id="Path_8261" data-name="Path 8261" d="M2628.37,267.74c-.09.52-.4,2.4-.44,3.038,0,.3.15-.833.13-.431,0,.108.12-1.186.12-1.088v-.215a17.907,17.907,0,0,0-.12,2.2,19.238,19.238,0,0,0,0,2.842,25.692,25.692,0,0,0,.98,7.448,10.278,10.278,0,0,0,.74,1.754,13.442,13.442,0,0,0,7.46,7.526,9.046,9.046,0,0,0,2.2.5,20.115,20.115,0,0,0,4.39.431c1.47,0,2.87-.137,4.02-.235a16.568,16.568,0,0,0,3.35-1.235c.52-.3.98-.558,1.5-.882s1.04-.637,1.53-.891a18.017,18.017,0,0,1,5.45-1.245,22.639,22.639,0,0,1,4.97.225l.6.138.54.127a10.535,10.535,0,0,0,1.1.147,17.024,17.024,0,0,0,1.89,0,9.2,9.2,0,0,0,2.17-.7,7.8,7.8,0,0,0,2.17-1.372,10.313,10.313,0,0,0,3.02-4.9,8.478,8.478,0,0,0,.26-2.607,9.745,9.745,0,0,1-.15,2.411c0,.167.11-.6.1-.431a9.792,9.792,0,0,1-.57,2.127,10.031,10.031,0,0,1-4.35,5.2,8.815,8.815,0,0,1-4.15,1.353,10.036,10.036,0,0,1-2.29-.128c-.72-.107-1.47-.2-2.24-.245a18.8,18.8,0,0,0-4.97.52,13.418,13.418,0,0,0-4.42,1.96,20.314,20.314,0,0,1-7.43,2.411,25.148,25.148,0,0,1-8.14-.745,11.9,11.9,0,0,1-5.73-3.3,17.122,17.122,0,0,1-3.48-5.449,24.376,24.376,0,0,1-.98-11.711c.11-1.068.23-1.9.41-2.832s.06-.186.18-.862q.105-.412.18-.853Z" transform="translate(-4615.996 9385.873)"/>
      <path id="Path_8262" data-name="Path 8262" d="M2690.12,313.173c-.6.274-2.76,1.225-3.47,1.568-.32.2.98-.382.52-.157-.1.069,1.34-.637,1.23-.578s.27-.1.26-.088c-.93.47-2.33,1.156-2.41,1.254-1.25.637-2.49,1.3-3.1,1.705a29.257,29.257,0,0,0-7.47,5.576,15.928,15.928,0,0,0-1.4,1.911,12.788,12.788,0,0,0-2.34,5.959,10.177,10.177,0,0,0,1.67,6.566,6.379,6.379,0,0,0,1.91,1.842,6.006,6.006,0,0,0,2.2,1.068,11.573,11.573,0,0,0,2.65.265,21.783,21.783,0,0,1,5.3.255,8.548,8.548,0,0,1,2.06.529.767.767,0,0,1,.41.4.775.775,0,0,1-.33.958h-.06a7.349,7.349,0,0,0-2.47,2.166,7.151,7.151,0,0,0-1.21,2.715,5.707,5.707,0,0,0,.98,5.38,6.324,6.324,0,0,0,4.56,2.244,4.8,4.8,0,0,0,2.52-.392,7.812,7.812,0,0,1,1.39-.549,1.959,1.959,0,0,1,1.44.177,3.5,3.5,0,0,1,1.27,1.234,4.255,4.255,0,0,0,.85.98,3.33,3.33,0,0,0,2.94.53,8.167,8.167,0,0,0,3.52-1.794c.63-.46,1.96-1.6,2.62-1.96a8.588,8.588,0,0,1,1.49-.794,5.237,5.237,0,0,1,1.53-.352,5.857,5.857,0,0,0-2.76,1.048c-.16.118.63-.382.48-.255a14.628,14.628,0,0,0-2.19,1.588,14.549,14.549,0,0,1-3.21,2.391,7.135,7.135,0,0,1-2.15.657,3.809,3.809,0,0,1-2.33-.422c-.88-.441-1.34-1.342-1.96-1.842a1.2,1.2,0,0,0-.98-.353,3.014,3.014,0,0,0-1.07.441,6.53,6.53,0,0,1-2.72.921,7.33,7.33,0,0,1-3.03-.392,7.422,7.422,0,0,1-4.82-4.7,8.657,8.657,0,0,1,.85-6.781,9.661,9.661,0,0,1,3.72-3.4v1.617a9.7,9.7,0,0,0-4.19-.49,34.567,34.567,0,0,1-4.9-.2,8.636,8.636,0,0,1-2.62-.9,8.77,8.77,0,0,1-2.16-1.764,10.738,10.738,0,0,1-2.88-7.654,14.037,14.037,0,0,1,2.73-7.576,21.746,21.746,0,0,1,5.32-4.958,39.861,39.861,0,0,1,6.53-3.421c1.2-.539,2.17-.98,3.25-1.4s.23-.069.98-.392Z" transform="translate(-4615.996 9385.873)"/>
      <path id="Path_8302" data-name="Path 8302" d="M2623.96,393.307h.1s.06-.1,0-.147a.71.71,0,0,0,0-.206,1.892,1.892,0,0,1,.16-.4.463.463,0,0,0,0-.166c.11-.128.14-.4.34-.451a.123.123,0,0,0,0-.118c.2.059.21-.186.47,0,0-.156.11-.245.09-.421a.652.652,0,0,0,.45-.157,1.3,1.3,0,0,1,.37.137.538.538,0,0,1,.17,0,.493.493,0,0,0,.37,0h.15a.163.163,0,0,0,.1-.068.253.253,0,0,1-.06.108.328.328,0,0,1-.05.088,1.859,1.859,0,0,1-.15.323.994.994,0,0,1-.16.471,5.018,5.018,0,0,1-.15.646c-.13,0-.2.147-.25.275-.17,0-.23.127-.42.088-.11.176-.43.108-.58.225a2.125,2.125,0,0,1-.72-.068.536.536,0,0,1-.16,0h-.08Z" transform="translate(-4615.996 9385.873)"/>
      <path id="Path_8303" data-name="Path 8303" d="M2665.52,424.638s.13-.1.13-.137-.07,0-.08,0,0,.069,0,.059h0v-.167a.346.346,0,0,0-.08-.215v-.412l.67.706-.06.058a.268.268,0,0,0,0,.177c-.14.108-.19.382-.37.421,0,0-.07.059-.05.118-.22,0-.2.206-.47.068,0,.157-.08.265,0,.441a.555.555,0,0,0-.38.275,1.41,1.41,0,0,1-.41,0,1.278,1.278,0,0,1-.16.059.473.473,0,0,0-.36.205c-.05,0-.09.089-.12.118a.372.372,0,0,0-.07.137v-.274a1.091,1.091,0,0,1,0-.441.935.935,0,0,1,0-.618,3.8,3.8,0,0,1,.09-.823.805.805,0,0,0,.32-.441c.22,0,.3-.225.55-.225.19-.235.6-.2.82-.324h.68a.441.441,0,0,1,.43.441.409.409,0,0,1-.13.294,1.276,1.276,0,0,1-.47.285c-.06,0-.09.088-.16.107s-.05,0-.1,0Z" transform="translate(-4615.996 9385.873)"/>
      <path id="Path_8304" data-name="Path 8304" d="M2671.03,424.03a.791.791,0,0,0-.23-.069c-.05.01.06.069,0,.078s.09,0,.08,0h0s-.14.059-.15.108a.39.39,0,0,0-.18.177c-.17.088-.29.235-.44.313a.578.578,0,0,0-.08.177c-.19.1-.31.382-.55.411,0,0-.09.059-.09.128-.23-.059-.27.215-.56.078a1.176,1.176,0,0,0-.11.49.706.706,0,0,0-.47.333,1.544,1.544,0,0,1-.44,0,.761.761,0,0,1-.17.088.6.6,0,0,0-.39.255c-.07,0-.1.118-.15.157a.918.918,0,0,0-.07.167v-.177h0v-.166a1.818,1.818,0,0,1,.05-.52,1.3,1.3,0,0,1,.14-.725,4.742,4.742,0,0,1,.25-.98,1.188,1.188,0,0,0,.45-.48c.25,0,.39-.235.68-.226.26-.235.73-.176,1.03-.274a2.2,2.2,0,0,1,.98.274.873.873,0,0,1,.21.108c.06.059,0,0,.06.079Z" transform="translate(-4615.996 9385.873)"/>
      <path id="Path_8305" data-name="Path 8305" d="M2673.98,426.069h-.16c-.03,0,.06,0,.05.069h0s-.07.088-.06.137a.639.639,0,0,0-.06.2,1.723,1.723,0,0,1-.21.362.468.468,0,0,0,0,.167c-.11.108-.17.372-.36.392a.1.1,0,0,0-.06.108c-.19-.088-.21.157-.44,0,0,.147-.13.225-.12.4a.583.583,0,0,0-.44.117,1.406,1.406,0,0,1-.36-.166.419.419,0,0,1-.15,0,.474.474,0,0,0-.38,0h-.14l-.12.058a.123.123,0,0,1,.07-.1h0l.06-.078a1.243,1.243,0,0,1,.15-.323.959.959,0,0,1,.19-.461c0-.225.15-.4.2-.637.13,0,.22-.137.28-.255.18,0,.25-.108.44,0,.14-.166.45-.059.62-.157a2.006,2.006,0,0,1,.7.177.453.453,0,0,1,.16.059c.06,0,0,0,.07.058Z" transform="translate(-4615.996 9385.873)"/>
      <path id="Path_8306" data-name="Path 8306" d="M2685.68,415.514a2.862,2.862,0,0,0,.49,0s-.15,0-.08-.059-.18,0-.17,0h0s.32-.108.32-.157a1.378,1.378,0,0,0,.42-.225,9.979,9.979,0,0,1,1.17-.392,1.423,1.423,0,0,0,.29-.187,7.422,7.422,0,0,1,1.8-.362.8.8,0,0,0,.39-.1c.47.137.98-.1,1.39.166a7.44,7.44,0,0,0,1.13-.333,7.924,7.924,0,0,0,1.6.128c.24.117.54.166.69.343a3.936,3.936,0,0,1,.38.117,2.59,2.59,0,0,0,.92.275,3.89,3.89,0,0,0,.4.1,3.5,3.5,0,0,0,.41,0h-.64c-.31.049-.69.107-1.06.137a7.688,7.688,0,0,1-1.36.264c-.51.167-1.09.265-1.58.451a2.79,2.79,0,0,0-1.14.137c-.38-.107-.79,0-1.22-.1a10.027,10.027,0,0,1-1.96,0,18.493,18.493,0,0,1-1.85-.215,2.252,2.252,0,0,1-.45,0c-.13,0,0,0-.14-.059Z" transform="translate(-4615.996 9385.873)"/>
      <path id="Path_8307" data-name="Path 8307" d="M2684.84,414.328a.962.962,0,0,0,.33,0s-.1,0-.06-.069-.12,0-.12,0,.21-.088.21-.137a.74.74,0,0,0,.27-.2,5.248,5.248,0,0,1,.76-.343,1.037,1.037,0,0,0,.19-.176,3.847,3.847,0,0,1,1.18-.334.41.41,0,0,0,.25-.1c.33.128.66-.117.98.138a4.634,4.634,0,0,0,.72-.373,3.052,3.052,0,0,0,1.07,0c.17.1.37.128.49.284a1.737,1.737,0,0,1,.26.089,1.265,1.265,0,0,0,.64.176,1.418,1.418,0,0,0,.29.049,1.221,1.221,0,0,0,.27,0,2.183,2.183,0,0,1-.25.069h0a1.319,1.319,0,0,1-.22.049,5.054,5.054,0,0,1-.7.245,3.357,3.357,0,0,1-.87.372c-.32.206-.7.333-.98.549a1.252,1.252,0,0,0-.75.166c-.28-.1-.53,0-.84-.078a4.138,4.138,0,0,1-1.3,0,7.013,7.013,0,0,1-1.26-.284,1.152,1.152,0,0,1-.32-.079c-.1,0,0,0-.11-.058Z" transform="translate(-4615.996 9385.873)"/>
      <path id="Path_8308" data-name="Path 8308" d="M2686.13,413.152a1.217,1.217,0,0,0,.33,0c0-.049-.09-.049-.05-.068s-.13,0-.12,0h0s.21-.088.21-.137a.665.665,0,0,0,.28-.206,6.012,6.012,0,0,1,.78-.363.8.8,0,0,0,.19-.176,4.347,4.347,0,0,1,1.25-.373.423.423,0,0,0,.26-.107c.32.137.91-.069,1.24.372a3.265,3.265,0,0,1,1.13.5,8.983,8.983,0,0,0,.53,1.088,1.832,1.832,0,0,1-.07.519,1.737,1.737,0,0,1,.05.225.486.486,0,0,0,.22.412l-.17.088v-.059c0-.058,0-.176-.06-.225a.276.276,0,0,0-.27,0,.386.386,0,0,1,.28,0h-.05a.385.385,0,0,1,.23.157.366.366,0,0,1,.1.313.086.086,0,0,1-.04.078.089.089,0,0,1-.08.02,1.15,1.15,0,0,1-.52-.2,1.993,1.993,0,0,1-.84-.677c-.32-.225-.6-.509-.84-.5,0-.147-.14-.108-.22,0-.07-.138-.3,0-.59-.157a6.471,6.471,0,0,1-1.3.059,8.53,8.53,0,0,1-1.28-.255,1.559,1.559,0,0,1-.31-.069c-.11,0,0,0-.12-.068Z" transform="translate(-4615.996 9385.873)"/>
      <path id="Path_8309" data-name="Path 8309" d="M2660.36,262.32a2.839,2.839,0,0,0,.52.117c.06,0-.14-.078-.07-.088s-.21,0-.19,0h0s.35,0,.37-.078a1.386,1.386,0,0,0,.5-.128,13.02,13.02,0,0,0,1.29-.205,1.449,1.449,0,0,0,.32-.147,3.3,3.3,0,0,0,.82-.187c.24-.1.21-.137.37-.235a.291.291,0,0,0,.08-.235c.34-.235.4-.882.8-1.117a5.951,5.951,0,0,1,.62-2.715,3.528,3.528,0,0,1,.43-.656c0-.147.11-.255.15-.383a2.132,2.132,0,0,0,.3-.98,3.477,3.477,0,0,0,.09-.45v-.451a1.3,1.3,0,0,0,.06.411v.3a6.649,6.649,0,0,1,.11,1.176,5.028,5.028,0,0,1,.06,1.549,14.906,14.906,0,0,1-.05,1.891,6.581,6.581,0,0,0-.4,1.3c-.3.363-.37.824-.87,1.284a2.021,2.021,0,0,1-.54.559,1.9,1.9,0,0,1-.79.294,7.33,7.33,0,0,1-1.23,0,10.254,10.254,0,0,1-1.96-.5,3.745,3.745,0,0,1-.48-.157c-.14-.068,0,0-.14-.1Z" transform="translate(-4615.996 9385.873)"/>
      <path id="Path_8310" data-name="Path 8310" d="M2635.32,257.519v.2c0,.039,0-.069.07-.049s0-.069,0-.069.08.1.13.088a.5.5,0,0,0,.21.118,1.538,1.538,0,0,1,.35.4.844.844,0,0,0,.17.088c.1.2.35.411.31.686,0,.059,0,.117.09.147-.15.206.07.4-.2.578.11.137.14.314.3.441a1.454,1.454,0,0,0-.16.647c-.12.088-.18.206-.35.255l-.13.137a.665.665,0,0,0-.29.323.741.741,0,0,1-.11.147.364.364,0,0,0,0,.147v-.274a2.863,2.863,0,0,1-.12-.412,1.321,1.321,0,0,1-.23-.5c-.17-.186-.25-.392-.42-.558a.338.338,0,0,0-.1-.382c.12-.138,0-.275.14-.432-.11-.2.07-.48,0-.686a3.26,3.26,0,0,1,.27-.735.6.6,0,0,1,.06-.186c0-.068,0,0,.06-.068a.118.118,0,0,0-.05-.049Z" transform="translate(-4615.996 9385.873)"/>
      <path id="Path_8311" data-name="Path 8311" d="M2656.39,340.2c0,.255-.49.725-.5.98s.43-.059.43.128.22-.373.31-.265.19,0,.28.108c-.15.274-.44.617-.29.774a2.918,2.918,0,0,0-.46.98c-.62.7-.98,1.431-1.67,2.2a3.257,3.257,0,0,0-.32.657c-.76.98-1.53,2.215-2.52,3.342a4.759,4.759,0,0,0-.48.725c-.78.735-1.36,1.842-2.09,2.381a24.462,24.462,0,0,0-1.29,2.284,19.772,19.772,0,0,0-2.12,2.94,5.811,5.811,0,0,1-1.2,1.068q-.285.339-.6.647a7.252,7.252,0,0,0-1.49,1.548c-.24.108-.52.539-.75.617a8,8,0,0,1-.68.686c-.08-.264,0-.529.34-.842-.09-.138-.21.117-.29,0,.18-.059.39-.432.58-.559a18.157,18.157,0,0,1,1.38-2.019,20.232,20.232,0,0,1,1.73-2.656c.58-1.038,1.37-2.156,1.96-3.185a13.009,13.009,0,0,0,1.55-2.185c.63-.647,1.11-1.49,1.8-2.2.73-1.2,1.89-2.47,2.6-3.675.85-.98,1.61-2.323,2.52-3.342.2-.333.31-.627.46-.931s.26.1.42-.088a1.805,1.805,0,0,1,.39-.108Z" transform="translate(-4615.996 9385.873)" fill="#fff"/>
      <path id="Path_8312" data-name="Path 8312" d="M2652.73,353.685c-.08-.156.12-.166.06-.313s-.26-.177-.31-.284,0,.1-.13,0a1.028,1.028,0,0,1-.21-.2c-.06-.079.11-.138,0-.294a.279.279,0,0,0,0-.3c.23-.079.29-.284.5-.392a.4.4,0,0,0,0-.216c.24-.157.41-.48.74-.617.06,0,.12-.088.11-.167.31,0,.38-.362.72-.284a2.107,2.107,0,0,0,.22-.647,1.183,1.183,0,0,0,.57-.6c.16,0,.28-.107.49,0a.3.3,0,0,0,.21-.068.6.6,0,0,0,.55-.118c.13.059.19,0,.31,0s.12-.059.26,0c.12.177.12.275,0,.3.09.118.1,0,.19.147-.11-.059-.15,0-.24,0a.862.862,0,0,1-.34.451,1.286,1.286,0,0,1-.4.627c-.1.294-.31.529-.4.823a.739.739,0,0,0-.42.451c-.23.049-.32.274-.57.333-.15.314-.56.451-.69.774-.29.118-.41.5-.73.618a.98.98,0,0,0-.05.294c0,.068-.19-.186-.24-.157A1.948,1.948,0,0,1,2652.73,353.685Z" transform="translate(-4615.996 9385.873)" fill="#fff"/>
      <path id="Path_8313" data-name="Path 8313" d="M2700.51,365.749c-.17.226-.98.363-1.15.578,0,.265.42.187.3.343s.46-.186.46,0,.13.138.16.245c-.3.157-.78.285-.74.5a2.2,2.2,0,0,0-.98.578,19.9,19.9,0,0,0-2.73,1.274,4.284,4.284,0,0,0-.59.53,34.067,34.067,0,0,0-3.64,2.6,4.183,4.183,0,0,0-.65.686,7.2,7.2,0,0,0-1.32,1.225,11.087,11.087,0,0,1-1.19,1.146,14.1,14.1,0,0,0-1.37,2.519,11.649,11.649,0,0,0-1.75,3.508,7.815,7.815,0,0,1-.92,1.48,9.506,9.506,0,0,1-.37.882,6.134,6.134,0,0,0-.84,2.225c-.2.215-.21.793-.39.98-.14.47-.13.617-.29,1.038a1.064,1.064,0,0,1-.09-.98c-.14-.088-.13.236-.27.147.14-.166.16-.646.27-.882a8.177,8.177,0,0,1,.18-1.3,8,8,0,0,1,.37-1.441,13.025,13.025,0,0,1,1.08-3.39,15.316,15.316,0,0,1,.83-1.96c.31-.667.64-1.323.98-1.96.6-.784,1.31-1.774,1.83-2.548.39-.37.77-.759,1.13-1.167a13.421,13.421,0,0,1,1.26-1.136,27.582,27.582,0,0,1,4.1-3.264,24.712,24.712,0,0,1,4.39-2.146c.41-.176.72-.372,1.08-.559s.16.236.44.147A2.944,2.944,0,0,1,2700.51,365.749Z" transform="translate(-4615.996 9385.873)" fill="#fff"/>
      <path id="Path_8314" data-name="Path 8314" d="M2688.58,384.83c-.12-.127.09-.245,0-.382s-.31-.059-.39-.157,0,.137-.14.069a2.292,2.292,0,0,1-.26-.118c-.1-.059.09-.215-.09-.323a.428.428,0,0,0,0-.382c.22-.216.27-.5.5-.745a.592.592,0,0,0,0-.265,6.038,6.038,0,0,1,.79-1.1c.07-.079.14-.157.13-.245.36-.157.45-.6.85-.628a4.221,4.221,0,0,0,.3-.852,2.535,2.535,0,0,0,.77-.892c.2-.059.36-.2.59-.127a.9.9,0,0,1,.26-.118.982.982,0,0,0,.7-.245c.14.049.23-.088.37,0s.16-.088.31-.078c.1.2.08.3,0,.352.08.118.11,0,.19.147-.11-.058-.18.059-.27,0a1.721,1.721,0,0,1-.48.559,2.36,2.36,0,0,1-.55.8,8.207,8.207,0,0,0-.5,1.038,1.065,1.065,0,0,0-.48.637c-.26.128-.35.422-.62.579-.15.4-.58.715-.68,1.146-.29.265-.35.755-.66,1.039a1.045,1.045,0,0,0,0,.353c0,.1-.25-.108-.3,0A1.86,1.86,0,0,1,2688.58,384.83Z" transform="translate(-4615.996 9385.873)" fill="#fff"/>
      <path id="Path_8315" data-name="Path 8315" d="M2697.56,375.236c.07-.147.08,0,.13-.147s.08-.3.13-.412,0,0,0-.1a2.363,2.363,0,0,0,.08-.264c0-.049.06,0,.14-.206,0,0,.07,0,.13-.157,0,.118.13,0,.18.118a.527.527,0,0,0,.1-.118c.07.079.22,0,.28.147s0,0,.08,0c0,.216.17.059.14.343.1-.078.18-.088.28-.245.06.128.18.118.29,0a1.045,1.045,0,0,1,0,.353v.108c0,.215,0,.264.06.313s0,.108,0,.255v.157c0,.108-.12.255-.14.2-.05.137,0,.088-.06.225v-.147a.161.161,0,0,1-.21,0,.245.245,0,0,1-.28.1c-.13.108-.23.108-.37.226,0-.108-.13-.069-.21,0,0-.137-.13-.059-.15-.206-.14.088-.21-.118-.36,0-.06-.137-.23,0-.28-.147,0,0-.09.1-.14.147s.08-.255.07-.274S2697.53,375.334,2697.56,375.236Z" transform="translate(-4615.996 9385.873)" fill="#fff"/>
      <path id="Path_8316" data-name="Path 8316" d="M2601.95,283.331c-.13-.127.08-.264,0-.392s-.32-.049-.4-.147,0,.147-.14.079-.17,0-.26-.1.08-.235-.1-.343a.471.471,0,0,0,0-.4c.22-.235.27-.539.51-.794a.679.679,0,0,0,0-.284,5.164,5.164,0,0,1,.9-1.137.52.52,0,0,0,.16-.255c.38-.147.52-.6.98-.6a5.216,5.216,0,0,0,.43-.853,3.033,3.033,0,0,0,.98-.813c.21,0,.42-.147.63,0a1.192,1.192,0,0,1,.3-.079,1.1,1.1,0,0,0,.76-.117c.13.078.26,0,.38.068s.18-.049.34,0c0,.216,0,.324-.14.343,0,.137.1.049.15.186-.09-.078-.19,0-.29,0a1.841,1.841,0,0,1-.6.461,2.62,2.62,0,0,1-.71.706,9.057,9.057,0,0,0-.66.98,1.119,1.119,0,0,0-.54.588c-.27.1-.39.382-.67.529-.18.4-.63.7-.73,1.137-.31.254-.37.754-.67,1.038a1.1,1.1,0,0,0,0,.363c0,.088-.26-.1-.3,0Z" transform="translate(-4615.996 9385.873)" fill="#fff"/>
      <path id="Path_8317" data-name="Path 8317" d="M2605.78,283.028c-.1-.137,0-.079-.05-.2s-.22-.226-.28-.314,0,0-.09-.049-.12-.127-.19-.215,0,0-.1-.216,0-.088-.06-.206c.12,0,.1-.108.21-.117a.364.364,0,0,0,0-.147c.11,0,.12-.206.31-.2v-.079c.19.088.14-.127.39,0a1.305,1.305,0,0,0-.05-.392c.15,0,.2-.108.19-.235a.685.685,0,0,1,.33.157h.12c.03,0,.23.127.31.088s.11,0,.21.127.07,0,.16.059.16.235.1.226.07.058.17.166c-.09-.078-.09,0-.15-.059,0,.118,0,.157-.1.206a.286.286,0,0,1-.08.314,1.425,1.425,0,0,0,0,.46c-.11,0-.14.079-.14.177s-.13.1-.28.049c0,.176-.23.137-.22.323-.16,0-.13.226-.31.2a.684.684,0,0,0,.06.2,1.865,1.865,0,0,0-.2-.2Z" transform="translate(-4615.996 9385.873)" fill="#fff"/>
      <path id="Path_8318" data-name="Path 8318" d="M2631.73,268.21c0-.176.23-.2.21-.362s-.26-.206-.29-.324-.1.108-.15,0-.12-.127-.19-.225.21-.157.1-.343a.416.416,0,0,0,.18-.353c.33-.1.5-.333.84-.46a.612.612,0,0,0,.12-.255,8.009,8.009,0,0,1,1.27-.686.42.42,0,0,0,.23-.186c.42,0,.7-.373,1.09-.265a3.7,3.7,0,0,0,.65-.7,2.665,2.665,0,0,0,1.11-.578c.21,0,.43-.069.62.078a1.224,1.224,0,0,1,.32,0,.964.964,0,0,0,.77,0c.13.089.27,0,.39.1s.19,0,.35,0c0,.226,0,.324-.19.334,0,.137.11.049.14.2-.09-.089-.2,0-.3,0a2.145,2.145,0,0,1-.71.411,2.628,2.628,0,0,1-.88.6c-.29.294-.68.519-.98.823a1.513,1.513,0,0,0-.75.451c-.32,0-.55.274-.89.323-.34.334-.91.461-1.23.824-.42.127-.74.558-1.18.7a2.169,2.169,0,0,0-.18.343c-.07.079-.17-.215-.24-.176Z" transform="translate(-4615.996 9385.873)" fill="#fff"/>
      <path id="Path_8319" data-name="Path 8319" d="M2740.37,391.994c.35.128.11.667.41.833.47.079.61-.245.84-.137s-.09-.343.17-.323.35-.079.57-.089c.11.245,0,.628.49.647.06.343.09.686.37.872-.19.794,0,1.51-.24,2.352a1.445,1.445,0,0,0,.2.637,14.023,14.023,0,0,1-.81,3.5,1.461,1.461,0,0,0-.11.745c-.63.745-.62,1.872-1.45,2.332a16.08,16.08,0,0,0-.32,2.293,10.31,10.31,0,0,0-1.51,2.754c-.44.275-.8.735-1.32.725a2.694,2.694,0,0,1-.6.461,3.258,3.258,0,0,0-1.58.98c-.3,0-.55.314-.87.235-.35.147-.37.275-.72.343-.21-.4-.16-.656.14-.823-.17-.235-.25,0-.42-.235.24.068.4-.226.63-.245a6.675,6.675,0,0,1,1.09-1.558,8.821,8.821,0,0,1,1.09-2.176,18.607,18.607,0,0,0,.78-2.744,3.289,3.289,0,0,0,.71-1.852c.46-.529.49-1.274.98-1.9,0-1.069.67-2.225.5-3.3.37-.911,0-2.078.32-3.067a4.133,4.133,0,0,0-.4-.745c0-.216.54-.069.55-.255q.255-.139.51-.255Z" transform="translate(-4615.996 9385.873)"/>
      <path id="Path_8321" data-name="Path 8321" d="M2745.7,365.593c0-.138.19-.51.18-.677s-.21.118-.23,0-.09.265-.14.216-.11,0-.16,0c.06-.186.19-.461.1-.519a3.766,3.766,0,0,0,.23-.657,11.963,11.963,0,0,1,.98-1.529,3.211,3.211,0,0,0,.24-.411,10.5,10.5,0,0,1,2.03-1.9,3.4,3.4,0,0,0,.46-.352c.31-.167.64-.373.98-.539a3.039,3.039,0,0,1,.92-.383c.49-.313,1.11-.548,1.54-.793l1.24-.3,1.13-.235a4.225,4.225,0,0,1,1.06.078,1.847,1.847,0,0,1,.58.059c.45.088.74.166,1.38.245a3.912,3.912,0,0,1,.58.235c.26.1.35.1.59.2a.73.73,0,0,1-.58,0c0,.059.13.069.08.137s-.35-.108-.47-.176c-.45,0-.98-.108-1.54-.1a15.738,15.738,0,0,0-1.96.215,11.145,11.145,0,0,0-2.19.735,5.59,5.59,0,0,0-1.5.677,12.834,12.834,0,0,0-1.53.872,10.794,10.794,0,0,0-1.96,1.96,11.888,11.888,0,0,0-1.44,2.117c-.08.225-.1.411-.16.617s-.14,0-.21.127Z" transform="translate(-4615.996 9385.873)"/>
      <path id="Path_8322" data-name="Path 8322" d="M2742.76,351.4c0-.137.38-.353.44-.5s-.25,0-.21-.1-.19.176-.21.118-.1,0-.13-.079.34-.3.29-.4a2.06,2.06,0,0,0,.43-.46c.48-.314.88-.637,1.41-.98a1.751,1.751,0,0,0,.34-.284,15.719,15.719,0,0,1,2.29-1.167,3.474,3.474,0,0,0,.49-.225,10.392,10.392,0,0,1,1.87-.51c.49-.215,1.09-.362,1.51-.558.75-.108,1.62-.265,2.21-.373a3.7,3.7,0,0,1,.98.089h.53a7.064,7.064,0,0,0,1.29.156,5.272,5.272,0,0,1,.57.157,4.6,4.6,0,0,1,.56.108.591.591,0,0,1-.53.078c0,.069.12.059.09.128s-.34-.059-.47-.108h-1.46c-.52,0-1.18.147-1.86.225a16.862,16.862,0,0,0-2.11.549,6.243,6.243,0,0,0-1.51.451c-.52.108-1.03.343-1.59.519a17.158,17.158,0,0,0-2.33,1.235,21.624,21.624,0,0,0-2.04,1.372,4.875,4.875,0,0,0-.39.461c-.13.127-.13-.079-.24,0A1.118,1.118,0,0,1,2742.76,351.4Z" transform="translate(-4615.996 9385.873)"/>
      <path id="Path_8323" data-name="Path 8323" d="M2775.75,375.2c.12,0,.23.264.34.294s.05-.2.13-.177-.12-.127-.06-.157,0-.078.1-.117.2.245.29.2a1.153,1.153,0,0,0,.33.3c.18.352.4.627.58.98a2.3,2.3,0,0,0,.2.245,8.918,8.918,0,0,1,.67,1.646,1.393,1.393,0,0,0,.13.343,5.906,5.906,0,0,1,.18,1.323c.13.353.2.764.33,1.068,0,.518.03,1.034.08,1.549a1.887,1.887,0,0,1-.19.656,2.291,2.291,0,0,1-.09.363,2.908,2.908,0,0,0-.26.862c-.07.079-.11.284-.2.353a2.389,2.389,0,0,1-.15.363.32.32,0,0,1,0-.373c-.07,0-.07.079-.12,0s.07-.215.13-.294c0-.284.07-.627.1-.98s0-.8,0-1.264a10.2,10.2,0,0,0-.26-1.45,2.992,2.992,0,0,0-.2-.98,7.684,7.684,0,0,0-.23-1.1,8.769,8.769,0,0,0-.71-1.617,12.793,12.793,0,0,0-.81-1.421,3.687,3.687,0,0,0-.32-.265c-.09-.088.09-.107,0-.186S2775.74,375.255,2775.75,375.2Z" transform="translate(-4615.996 9385.873)"/>
      <path id="Path_8324" data-name="Path 8324" d="M2787.19,366.887c.13.059.26.441.39.519s0-.225.15-.176-.15-.216-.08-.235.05-.079.1-.108c.11.147.23.392.33.362a2.565,2.565,0,0,0,.37.51c.23.519.47.98.7,1.529a2.613,2.613,0,0,0,.21.372,17.215,17.215,0,0,1,.81,2.421,3,3,0,0,0,.14.509,10.2,10.2,0,0,1,.27,1.9c.15.509.23,1.107.38,1.548,0,.745.09,1.617.15,2.2a4.072,4.072,0,0,1-.17.98,1.159,1.159,0,0,1-.08.529,6.031,6.031,0,0,0-.23,1.264c-.08.138-.11.441-.2.549a3.624,3.624,0,0,1-.14.559.613.613,0,0,1,0-.529c-.07,0-.07.117-.14.068a2.356,2.356,0,0,0,.14-.451c0-.411.05-.921.07-1.44a15.586,15.586,0,0,0-.06-1.872,19.6,19.6,0,0,0-.33-2.156,7.371,7.371,0,0,0-.26-1.548,11.907,11.907,0,0,0-.31-1.637,21.583,21.583,0,0,0-.87-2.479c-.21-.726-.69-1.5-.98-2.235-.13-.186-.24-.323-.37-.48s.1-.1,0-.225A2.156,2.156,0,0,1,2787.19,366.887Z" transform="translate(-4615.996 9385.873)"/>
      <path id="Path_8325" data-name="Path 8325" d="M2586.02,271.376c.07-.069.18,0,.25,0s0-.167,0-.206-.09,0-.06-.069,0-.088,0-.147.15,0,.19-.058a.257.257,0,0,0,.22,0c.17.1.34.1.52.186a.273.273,0,0,0,.16,0,7.122,7.122,0,0,1,.8.274.291.291,0,0,0,.18,0c.16.157.44.137.56.324a2.107,2.107,0,0,0,.55,0,1.8,1.8,0,0,0,.71.2c.09.078.22.127.26.245l.14.1a.644.644,0,0,0,.37.264c0,.079.13.088.15.177s.1.049.16.117-.13.118-.21.059,0,.059,0,.127-.1-.068-.12-.117a1.447,1.447,0,0,1-.49-.1,1.809,1.809,0,0,1-.64-.108c-.25,0-.51-.069-.77-.069a1.028,1.028,0,0,0-.52-.137c-.15-.117-.35-.117-.52-.235a2.246,2.246,0,0,0-.89-.235,1.736,1.736,0,0,1-.79-.275,2.207,2.207,0,0,0-.23,0c-.05,0,0-.137,0-.156A.453.453,0,0,0,2586.02,271.376Z" transform="translate(-4615.996 9385.873)"/>
      <path id="Path_8326" data-name="Path 8326" d="M2599.81,264.682c-.14,0-.41-.372-.56-.412s0,.236-.07.216.2.176.13.206,0,.1-.06.137c-.15-.118-.34-.323-.43-.265a1.943,1.943,0,0,0-.53-.382c-.38-.441-.78-.764-1.19-1.235a2.557,2.557,0,0,0-.36-.313c-.51-.569-1.19-1.2-1.78-1.96a2.449,2.449,0,0,0-.38-.382c-.43-.5-.83-1.031-1.21-1.578-.4-.373-.81-.833-1.18-1.127a18.727,18.727,0,0,0-1.46-1.735,3.736,3.736,0,0,1-.49-.872,4.431,4.431,0,0,1-.3-.461,6.235,6.235,0,0,0-.7-1.136c0-.157-.24-.4-.26-.539s-.19-.294-.3-.52c.15,0,.28.137.42.363.08,0-.05-.137,0-.147s.19.3.24.431c.34.375.67.767.98,1.176.46.461.84.931,1.29,1.48a19.411,19.411,0,0,0,1.6,1.666,10.049,10.049,0,0,0,1.1,1.235c.32.46.76.872,1.12,1.362.64.6,1.3,1.431,1.96,1.96a13.381,13.381,0,0,1,1.81,1.862c.18.147.34.245.51.372s-.06.128,0,.235A.938.938,0,0,1,2599.81,264.682Z" transform="translate(-4615.996 9385.873)"/>
      <path id="Path_8327" data-name="Path 8327" d="M2609.7,254.676h.1l.18-.1.13-.068h.22c.1,0,0,.049,0,.1h.13a.1.1,0,0,1,0,.147h0a.263.263,0,0,1-.08.157.408.408,0,0,0,.19,0c0,.068,0,.1.08.107a.45.45,0,0,1-.13.128v.049c0,.049-.08.088-.08.127s0,0-.09.088l-.05.059c-.1,0-.14.049-.12,0l-.11.059h.05a.087.087,0,0,1-.08-.059.137.137,0,0,1-.13-.059c-.08,0-.12-.049-.21-.049s0-.068-.06-.068,0-.069,0-.128,0-.107-.12-.117-.07-.079,0-.147a.154.154,0,0,0-.09,0,.826.826,0,0,0,.12-.079Z" transform="translate(-4615.996 9385.873)"/>
      <path id="Path_8328" data-name="Path 8328" d="M2620.33,234.214c.12.049.17.353.28.421s.1-.186.16-.147-.08-.166,0-.176.07-.069.12-.088.14.313.25.294a1.015,1.015,0,0,0,.25.392c.11.411.29.744.41,1.185a1.386,1.386,0,0,0,.18.275c.17.529.43,1.146.59,1.813a1.192,1.192,0,0,0,.14.362,13.492,13.492,0,0,1,.28,1.412,10.659,10.659,0,0,0,.47,1.087,9.865,9.865,0,0,0,.44,1.6,2.2,2.2,0,0,1,0,.725,2.694,2.694,0,0,1,0,.4,3.233,3.233,0,0,0,.07.98v.872a.369.369,0,0,1-.2-.363c-.08,0,0,.108-.09.1s0-.264,0-.362a6.69,6.69,0,0,1-.29-1.068,9.223,9.223,0,0,1-.41-1.353c-.2-.5-.37-1.088-.58-1.568a6.386,6.386,0,0,0-.35-1.137c-.06-.4-.24-.8-.32-1.234-.24-.588-.4-1.333-.68-1.892a8.858,8.858,0,0,1-.63-1.764c-.08-.135-.16-.266-.25-.392-.06-.117.11-.078.08-.186A1.271,1.271,0,0,1,2620.33,234.214Z" transform="translate(-4615.996 9385.873)"/>
      <path id="Path_8329" data-name="Path 8329" d="M2641.18,237.154c.08,0,0,.069.09.088a.735.735,0,0,0,.21,0h.19s0,.059.12.059,0,.069.09.088,0,.138,0,.216a.407.407,0,0,0,.07.059V238a.083.083,0,0,0,0,.069c-.1.088,0,.186-.13.254.05.069.06.147.16.206a.307.307,0,0,0,0,.294.278.278,0,0,1-.16.118c-.11.019,0,0,0,.068a.225.225,0,0,0-.15.177c-.06,0,0,.059-.12.078s0,0-.07.069-.14,0-.12-.069,0,0-.11,0,0,0,.07-.059a.273.273,0,0,1-.05-.2.3.3,0,0,1-.09-.254c-.07-.089-.09-.2-.17-.294s0-.147,0-.216a.3.3,0,0,1,.07-.225c.07-.079,0-.245,0-.353v-.333c0-.108-.06-.059-.09-.089s.14,0,.14,0Z" transform="translate(-4615.996 9385.873)"/>
      <path id="Path_8330" data-name="Path 8330" d="M2655.58,240.966c-.05-.108.08-.421,0-.539s-.18.108-.22,0,0,.206-.09.177-.1,0-.15,0,.07-.353,0-.392a1.062,1.062,0,0,0,0-.5c.15-.431.2-.823.35-1.294a.987.987,0,0,0,0-.343c.17-.568.3-1.264.56-1.96a1.446,1.446,0,0,0,.09-.411q.255-.726.57-1.421a12.586,12.586,0,0,0,.22-1.245,10.68,10.68,0,0,0,.53-1.666,2.494,2.494,0,0,1,.4-.666c.06-.157.13-.255.18-.383a3.254,3.254,0,0,0,.48-.921c.1-.078.17-.313.27-.382s.12-.245.22-.4c.08.108.06.245,0,.431.06.049.08-.078.14,0s-.13.245-.19.324a11.091,11.091,0,0,1-.36,1.127,10.614,10.614,0,0,1-.41,1.46c-.11.559-.3,1.176-.39,1.735a6.623,6.623,0,0,0-.36,1.234c-.18.383-.26.843-.45,1.274-.13.667-.44,1.431-.53,2.088a12.3,12.3,0,0,1-.51,1.96,2.089,2.089,0,0,0,0,.5c0,.147-.15,0-.18.117Z" transform="translate(-4615.996 9385.873)"/>
      <path id="Path_8331" data-name="Path 8331" d="M2680.82,247.875c0-.078.09-.176.05-.254s-.17,0-.21-.079,0,.088-.08,0-.08,0-.13-.059.08-.147,0-.215a.378.378,0,0,0,.05-.255c.15-.157.2-.343.36-.529a.525.525,0,0,0,0-.177,5.183,5.183,0,0,1,.59-.774.3.3,0,0,0,.09-.176c.24-.137.34-.422.58-.49a3.049,3.049,0,0,0,.27-.569,2.489,2.489,0,0,0,.56-.637c.12-.058.24-.166.37-.147a.749.749,0,0,1,.17-.107.915.915,0,0,0,.47-.236c.07,0,.15-.078.23-.058s.11-.079.21-.1a.17.17,0,0,1-.07.225c0,.059.07,0,.11.059s-.12.059-.18.068a1.842,1.842,0,0,1-.37.412,2.215,2.215,0,0,1-.43.568c-.13.245-.33.481-.44.726a1.314,1.314,0,0,0-.36.47c-.17.118-.26.323-.45.451-.14.294-.43.549-.55.843a2.414,2.414,0,0,1-.52.774,1,1,0,0,0,0,.245c0,.059-.11-.059-.15,0A.45.45,0,0,1,2680.82,247.875Z" transform="translate(-4615.996 9385.873)"/>
    </g>
  </g>
</svg>
