<svg xmlns="http://www.w3.org/2000/svg" width="453.988" height="432.736" viewBox="0 0 453.988 432.736">
  <path id="Path_9106" data-name="Path 9106" d="M1309.05,716.175c.41-1.136.75-2.06,1.03-3.053a32.839,32.839,0,0,0-.26-15.484,63.158,63.158,0,0,0-9.01-19.974,106.2,106.2,0,0,0-24.86-26.077,140.839,140.839,0,0,0-47.23-23.473,96.074,96.074,0,0,0-29.33-4.031,76.991,76.991,0,0,0-10.66,1.19,27.961,27.961,0,0,0-5.99,2.264c-.7.292-1.4.583-1.98.024a3.622,3.622,0,0,1-.72-1.83,3.042,3.042,0,0,1,2.08-2.712c2.25-1.017,4.43-2.246,6.83-2.7a66.294,66.294,0,0,1,11.86-1.416,78.1,78.1,0,0,1,22.87,2.2c26.24,6.189,49.23,18.428,68.48,37.5,8.59,8.524,15.64,18.2,20.09,29.529,3.87,9.924,5.47,19.876,1.5,30.39.78.485,1.56.83,2.28,1.245a136.371,136.371,0,0,1,26.23,17.645c7.79,6.766,14.6,14.392,19.24,23.67a54.784,54.784,0,0,1,3.5,9.151c4.08,15.3-1.7,28.66-15.47,36.464a58.1,58.1,0,0,1-15.91,5.849c-10.86,2.394-21.89,2.669-32.93,1.954-3.04-.176-6.02-.564-9.13-.81-.64-.063-1.2-.056-2.12-.115.29.986.52,1.9.74,2.678A53.983,53.983,0,0,1,1292.57,839a38.084,38.084,0,0,1-12.36,24.546,42.327,42.327,0,0,1-14.68,8.451c-8.66,3-17.63,3.748-26.76,3.364-1.2-.057-2.4-.113-3.82-.237.01.99.09,1.908.11,2.757.38,8.622-1.36,16.7-6.51,23.839a37.228,37.228,0,0,1-14.28,11.769,62.543,62.543,0,0,1-23.05,6.007,108.652,108.652,0,0,1-33.13-2.429c-.85-.131-1.77-.332-2.83-.532.08,1.06.16,1.837.24,2.755a141.756,141.756,0,0,1,1.05,27.991,113.042,113.042,0,0,1-1.75,12.821,23.066,23.066,0,0,1-3.5,8.882,6.66,6.66,0,0,1-4.56,3.378,1.438,1.438,0,0,0-.07-.352c2.3-2.079,3.33-4.849,4.07-7.758a58.567,58.567,0,0,0,1.61-13.526,212.246,212.246,0,0,0-2.33-34.693,4.281,4.281,0,0,1-.22-.917c-.64-.2-1.35-.478-2.13-.681a149.6,149.6,0,0,1-51.39-27.1c-8.14-6.549-15.37-14.029-20.57-23.159a41.17,41.17,0,0,1-4.23-10.132,23.352,23.352,0,0,1-.59-8.267,14.821,14.821,0,0,1,9.96-12.637,25.278,25.278,0,0,1,12.36-1.068,54.651,54.651,0,0,1,23.66,9.261,77.452,77.452,0,0,1,31.93,44.165c2.07,7.33,3.37,15.022,5.01,22.5.15.847.31,1.694.46,2.541a6.142,6.142,0,0,0,.64.345c12.98,3.167,26.15,4.564,39.49,2.777,7.56-1.011,14.67-3.006,21.2-7.116,10.74-6.847,15.83-18.506,13.83-31.918-.71-.133-1.63-.334-2.48-.465a130.015,130.015,0,0,1-47.16-16.827A73.465,73.465,0,0,1,1163.3,844.3a31.9,31.9,0,0,1-6.84-10.03,22.1,22.1,0,0,1-1.71-6.7c-.49-5.227,2.15-9.5,6.93-11.823a21.357,21.357,0,0,1,8.61-1.8,42.27,42.27,0,0,1,14.81,2.721,76.81,76.81,0,0,1,29.15,18.812c9.3,9.364,16.08,20.172,19.35,33.144.07.212.15.423.29.845.64.063,1.35.2,1.99.259a76.015,76.015,0,0,0,22.26-1.329,41.758,41.758,0,0,0,15.75-6.838,31.1,31.1,0,0,0,12.43-18.748,40.977,40.977,0,0,0,.35-18.108c-.68-3.456-1.78-6.767-2.67-10.15a3.016,3.016,0,0,0-2.85-2.37,202.018,202.018,0,0,1-31.14-7.615c-15.55-4.975-30.61-11.3-44.51-19.971a85,85,0,0,1-18.42-14.91,28.666,28.666,0,0,1-6.21-10.109c-1.98-6.269.57-11.6,6.69-14.011a17.541,17.541,0,0,1,5.36-1.338,49.461,49.461,0,0,1,8.56-.033,68.56,68.56,0,0,1,18.37,4.517,126.585,126.585,0,0,1,52.92,36.982,94.535,94.535,0,0,1,13.33,20.7,2.741,2.741,0,0,0,2.43,1.951c11.33,1.419,22.58,2.2,33.95,1a71.737,71.737,0,0,0,18.9-4.188,36.877,36.877,0,0,0,9.84-5.352c7.64-5.82,10.94-13.5,10.19-23.035-.58-6.852-3.27-12.972-6.88-18.727A79.811,79.811,0,0,0,1336.4,738.4a132.942,132.942,0,0,0-23.44-14.92,4.314,4.314,0,0,0-1.42-.549,8.6,8.6,0,0,0-1.12,1.145,29.478,29.478,0,0,1-13.74,10.066,63.323,63.323,0,0,1-11.28,3.106,82.3,82.3,0,0,1-47.1-6.573,33.216,33.216,0,0,1-9.55-6.25c-.86-.838-1.72-1.676-2.51-2.586-4.67-5.813-3.47-12.192,2.7-16.226a24.645,24.645,0,0,1,8.45-3.214,57.052,57.052,0,0,1,14.34-1.092,122.973,122.973,0,0,1,35.73,6.781c6.46,2.115,12.71,4.868,19.04,7.266A6.736,6.736,0,0,1,1309.05,716.175ZM1149.3,909.037c-.53-2.893-.99-5.433-1.51-8.044-1.73-8.394-3.67-16.715-7.23-24.522-6.9-14.979-17.29-26.8-31.74-34.762a41.091,41.091,0,0,0-17.25-5.378,19.5,19.5,0,0,0-8.76.954c-4.08,1.605-6.59,4.464-6.89,8.923a17.852,17.852,0,0,0,.57,6.428,43.4,43.4,0,0,0,3.57,8.655c4.33,7.726,10.35,14.159,17.07,19.877a142.752,142.752,0,0,0,49.62,27.334A17.255,17.255,0,0,1,1149.3,909.037Zm131.57-102.288a12.379,12.379,0,0,0-.58-1.407,93.342,93.342,0,0,0-10.16-15.364,121.928,121.928,0,0,0-35.43-29.273c-9.18-5.052-18.71-9.038-29.05-10.894a54.509,54.509,0,0,0-10.19-.725,17.91,17.91,0,0,0-6.28,1.419c-2.96,1.167-3.99,3.655-3.17,6.686a15.5,15.5,0,0,0,1.81,4.15,38.554,38.554,0,0,0,8.68,9.866,95.444,95.444,0,0,0,16.47,11.47c20.72,11.7,42.95,19.282,66.27,23.879A15.318,15.318,0,0,0,1280.87,806.749Zm-52.29,61.871a9.512,9.512,0,0,0-.38-1.763c-.87-2.394-1.54-4.861-2.63-7.181-6.25-13.927-16.21-24.626-29.03-32.674a55.87,55.87,0,0,0-20.11-8.031,25.251,25.251,0,0,0-10.04-.02c-5.5,1.339-7.79,5.114-6.31,10.612a22.941,22.941,0,0,0,4.48,8.149c4.17,5.466,9.59,9.643,15.37,13.322,14.39,9.16,30.16,14.627,46.88,17.4A9.074,9.074,0,0,0,1228.58,868.62Zm78.33-148.247c-.64-.346-1.07-.623-1.42-.831-14.15-6.264-28.85-10.966-44.22-12.973a71.094,71.094,0,0,0-19.38-.332,32.583,32.583,0,0,0-8.53,2.295c-5.76,2.474-6.42,6.725-2.05,11.269a30.167,30.167,0,0,0,9.76,6.459,79.714,79.714,0,0,0,41.94,6.282,41.637,41.637,0,0,0,15.29-4.64A25.424,25.424,0,0,0,1306.91,720.373Z" transform="translate(1525.229 -441.117) rotate(120)" fill="#deb47d"/>
</svg>
