<svg xmlns="http://www.w3.org/2000/svg" width="483.857" height="496.683" viewBox="0 0 483.857 496.683">
  <path id="Path_9108" data-name="Path 9108" d="M1410.712,501.012c.953-3.232,1.906-6.2,2.708-9.16,3.937-15.226,7.723-30.452,12.889-45.407,9.328-27.082,20.186-53.624,31.294-80.031,12.312-29.238,24.373-58.476,36.585-87.712,1.88-4.717,4.188-9.163,6.495-13.744a16.551,16.551,0,0,1,3.385-4.714c2.307-2.292,5.291-1.349,5.542,1.886a27.361,27.361,0,0,1-.251,8.084c-2.031,11.452-4.062,22.9-6.52,34.221-6.495,30.856-13.14,61.709-18.28,92.832-2.984,18.325-5.567,36.648-8.125,54.973-2.307,16.166-4.213,32.2-6.244,48.368-.276,2.425-.4,4.852-.677,7.949a23.751,23.751,0,0,0,2.708-1.75,104.412,104.412,0,0,0,8-7.545c26.279-27.217,55.943-50.525,87.263-71.814,1.881-1.211,3.787-2.425,5.818-3.5a10.647,10.647,0,0,1,3.385-.943,3.409,3.409,0,0,1,3.786,3.5,10.51,10.51,0,0,1-1.079,4.985,84.85,84.85,0,0,1-6.219,11.319c-8.149,11.317-16.274,22.633-24.674,33.682-12.588,16.573-25.477,33.012-38.215,49.585a85.479,85.479,0,0,0-6.62,9.97c-2.984,4.985-2.457,7.41,2.558,10.509a99.036,99.036,0,0,0,11.785,6.063c14.644,6.2,29.815,11.048,44.986,15.627,38.616,11.858,76.831,24.928,114.219,40.151,2.307.943,4.74,1.753,7.047,2.7a9.992,9.992,0,0,1,2.583,1.482,3.1,3.1,0,0,1-1.078,5.256,8.767,8.767,0,0,1-2.583.4c-9.077.133-18.155.4-27.232.133-23.044-.943-46.064-3.368-68.958-6.2q-50.4-6.063-100-16.437c-4.464-.945-8.927-1.617-13.416-2.427a10.863,10.863,0,0,0-2.984-.133c-3.51,0-5.015.807-5.943,4.31-1.229,4.717-2.307,9.431-3.134,14.148q-5.491,30.516-8.927,61.438c-1.5,13.34-2.583,26.813-4.213,40.151-1.2,10.509-2.984,20.885-4.463,31.395a39.068,39.068,0,0,1-2.031,6.735c-.827,2.292-2.307,4.313-5.14,4.313-2.583-.135-4.087-2.021-4.764-4.313a64.808,64.808,0,0,1-2.959-11.181c-1.354-9.027-2.708-18.19-3.26-27.217-1.354-22.1-2.432-44.058-3.109-66.154-.426-13.34,0-26.678.126-40.016v-4.313c-2.031.271-3.786.271-5.542.539-19.534,3.235-38.616,7.681-57.875,12.262-32.774,7.545-65.573,15.762-98.748,22.365-14.093,2.828-28.335,5.256-42.553,7.814-2.432.406-5.015.539-7.447.81a8.952,8.952,0,0,1-1.906,0c-2.834-.135-4.338-.943-4.614-2.7-.4-2.289,1.1-3.368,2.708-4.31,3.661-2.021,7.2-3.907,10.858-5.8,34.554-18.187,69.911-34.76,104.992-51.736,16.4-7.952,32.523-16.708,48.647-25.2,2.031-1.078,3.786-2.292,6.219-3.774a39.53,39.53,0,0,0-3.385-4.446c-6.77-7.274-13.265-14.82-20.587-21.557-14.619-13.473-29.539-26.543-44.585-39.612-18.28-15.9-36.309-32.067-52.834-49.718-3.661-3.907-7.172-8.084-10.557-12.259a27.228,27.228,0,0,1-2.583-3.774c-1.078-1.886-.953-3.636.276-4.85,1.078-1.214,2.833-1.347,4.739-.4.677.268,1.354.807,2.031,1.078,9.077,5.118,17.879,10.509,27.107,15.359,27.357,14.281,54.865,28.564,81.7,44.058A242.949,242.949,0,0,0,1399.2,495.22a51.346,51.346,0,0,1,6.094,2.964C1407.052,498.994,1408.682,499.936,1410.712,501.012Z" transform="translate(-1204.023 -258.98)" fill="#fff"/>
</svg>
