<svg width="1920" height="858" viewBox="0 0 1920 858" fill="none" xmlns="http://www.w3.org/2000/svg">
<g clip-path="url(#clip0_13_2)">
<path d="M1966.77 471.175C1967.18 470.039 1967.52 469.115 1967.8 468.122C1968.95 463.014 1968.86 457.705 1967.54 452.638C1965.72 445.506 1962.67 438.746 1958.53 432.664C1951.79 422.62 1943.38 413.8 1933.67 406.587C1919.54 395.859 1903.52 387.895 1886.44 383.114C1876.93 380.263 1867.03 378.903 1857.11 379.083C1853.53 379.232 1849.97 379.629 1846.45 380.273C1844.37 380.796 1842.36 381.556 1840.46 382.537C1839.76 382.829 1839.06 383.12 1838.48 382.561C1838.07 382.029 1837.82 381.396 1837.76 380.731C1837.79 380.123 1838.01 379.539 1838.38 379.056C1838.75 378.572 1839.26 378.211 1839.84 378.019C1842.09 377.002 1844.27 375.773 1846.67 375.319C1850.57 374.491 1854.54 374.017 1858.53 373.903C1866.22 373.505 1873.92 374.247 1881.4 376.103C1907.64 382.292 1930.63 394.531 1949.88 413.603C1958.47 422.127 1965.52 431.803 1969.97 443.132C1973.84 453.056 1975.44 463.008 1971.47 473.522C1972.25 474.007 1973.03 474.352 1973.75 474.767C1983.14 479.612 1991.95 485.534 1999.98 492.412C2007.77 499.178 2014.58 506.804 2019.22 516.082C2020.65 519.022 2021.83 522.085 2022.72 525.233C2026.8 540.533 2021.02 553.893 2007.25 561.697C2002.26 564.414 1996.9 566.385 1991.34 567.546C1980.48 569.94 1969.45 570.215 1958.41 569.5C1955.37 569.324 1952.39 568.936 1949.28 568.69C1948.64 568.627 1948.08 568.634 1947.16 568.575C1947.45 569.561 1947.68 570.475 1947.9 571.253C1950.31 578.578 1951.12 586.334 1950.29 594C1949.37 603.435 1944.96 612.188 1937.93 618.546C1933.65 622.324 1928.66 625.198 1923.25 626.997C1914.59 629.997 1905.62 630.745 1896.49 630.361C1895.29 630.304 1894.09 630.248 1892.67 630.124C1892.68 631.114 1892.76 632.032 1892.78 632.881C1893.16 641.503 1891.42 649.581 1886.27 656.72C1882.57 661.783 1877.66 665.831 1871.99 668.489C1864.76 671.95 1856.93 673.989 1848.94 674.496C1837.83 675.39 1826.66 674.57 1815.81 672.067C1814.96 671.936 1814.04 671.735 1812.98 671.535C1813.06 672.595 1813.14 673.372 1813.22 674.29C1814.49 683.563 1814.84 692.939 1814.27 702.281C1813.93 706.585 1813.34 710.866 1812.52 715.102C1811.98 718.275 1810.79 721.3 1809.02 723.984C1808.55 724.848 1807.9 725.599 1807.11 726.183C1806.33 726.767 1805.42 727.17 1804.46 727.362C1804.45 727.242 1804.43 727.124 1804.39 727.01C1806.69 724.931 1807.72 722.161 1808.46 719.252C1809.52 714.822 1810.06 710.282 1810.07 705.726C1810.24 694.118 1809.46 682.514 1807.74 671.033C1807.63 670.737 1807.56 670.429 1807.52 670.116C1806.88 669.916 1806.17 669.638 1805.39 669.435C1786.65 663.847 1769.19 654.64 1754 642.335C1745.86 635.786 1738.63 628.306 1733.43 619.176C1731.57 616.003 1730.15 612.595 1729.2 609.044C1728.51 606.346 1728.31 603.546 1728.61 600.777C1728.87 597.935 1729.96 595.231 1731.72 592.99C1733.49 590.748 1735.87 589.064 1738.57 588.14C1742.53 586.763 1746.78 586.396 1750.93 587.072C1759.43 588.258 1767.54 591.43 1774.59 596.333C1790.23 606.701 1801.58 622.395 1806.52 640.498C1808.59 647.828 1809.89 655.52 1811.53 662.998C1811.68 663.845 1811.84 664.692 1811.99 665.539C1812.19 665.667 1812.41 665.782 1812.63 665.884C1825.61 669.051 1838.78 670.448 1852.12 668.661C1859.68 667.65 1866.79 665.655 1873.32 661.545C1884.06 654.698 1889.15 643.039 1887.15 629.627C1886.44 629.494 1885.52 629.293 1884.67 629.162C1868.01 626.662 1851.99 620.947 1837.51 612.335C1831.41 608.803 1825.86 604.413 1821.02 599.3C1818.12 596.426 1815.79 593.021 1814.18 589.27C1813.26 587.141 1812.68 584.88 1812.47 582.57C1811.98 577.343 1814.62 573.07 1819.4 570.747C1822.11 569.556 1825.04 568.943 1828.01 568.947C1833.07 568.961 1838.08 569.882 1842.82 571.668C1853.84 575.634 1863.81 582.069 1871.97 590.48C1881.27 599.844 1888.05 610.652 1891.32 623.624C1891.39 623.836 1891.47 624.047 1891.61 624.469C1892.25 624.532 1892.96 624.669 1893.6 624.728C1901.04 625.382 1908.54 624.934 1915.86 623.399C1921.52 622.236 1926.89 619.907 1931.61 616.561C1937.94 612.082 1942.38 605.395 1944.04 597.813C1945.5 591.879 1945.62 585.692 1944.39 579.705C1943.71 576.249 1942.61 572.938 1941.72 569.555C1941.57 568.899 1941.22 568.31 1940.7 567.881C1940.18 567.451 1939.54 567.207 1938.87 567.185C1928.3 565.476 1917.89 562.929 1907.73 559.57C1892.18 554.595 1877.12 548.27 1863.22 539.599C1856.41 535.514 1850.21 530.495 1844.8 524.689C1842.04 521.79 1839.93 518.346 1838.59 514.58C1836.61 508.311 1839.16 502.98 1845.28 500.569C1846.98 499.843 1848.79 499.391 1850.64 499.231C1853.48 498.973 1856.35 498.962 1859.2 499.198C1865.5 499.848 1871.68 501.368 1877.57 503.715C1898.11 511.261 1916.34 524.003 1930.49 540.697C1935.81 546.987 1940.3 553.946 1943.82 561.397C1943.98 561.931 1944.29 562.403 1944.73 562.752C1945.16 563.1 1945.69 563.308 1946.25 563.348C1957.58 564.767 1968.83 565.548 1980.2 564.348C1986.66 563.813 1993.02 562.404 1999.1 560.16C2002.63 558.888 2005.95 557.083 2008.94 554.808C2016.58 548.988 2019.88 541.308 2019.13 531.773C2018.55 524.921 2015.86 518.801 2012.25 513.046C2007.35 505.525 2001.22 498.883 1994.12 493.4C1986.85 487.622 1978.99 482.621 1970.68 478.48C1970.24 478.215 1969.76 478.029 1969.26 477.931C1968.85 478.277 1968.47 478.661 1968.14 479.076C1964.65 483.711 1959.87 487.212 1954.4 489.142C1950.74 490.524 1946.96 491.563 1943.12 492.248C1927.11 494.74 1910.73 492.453 1896.02 485.675C1892.5 484.159 1889.27 482.044 1886.47 479.425C1885.61 478.587 1884.75 477.749 1883.96 476.839C1879.29 471.026 1880.49 464.647 1886.66 460.613C1889.25 459.03 1892.12 457.94 1895.11 457.399C1899.82 456.432 1904.64 456.065 1909.45 456.307C1921.63 456.784 1933.67 459.07 1945.18 463.088C1951.64 465.203 1957.89 467.956 1964.22 470.354C1965.11 470.454 1965.98 470.734 1966.77 471.175ZM1807.02 664.037C1806.49 661.144 1806.03 658.604 1805.51 655.993C1803.78 647.599 1801.84 639.278 1798.28 631.471C1791.38 616.492 1780.99 604.671 1766.54 596.709C1761.26 593.659 1755.36 591.822 1749.29 591.331C1746.33 590.977 1743.34 591.303 1740.53 592.285C1736.45 593.89 1733.94 596.749 1733.64 601.208C1733.44 603.368 1733.63 605.546 1734.21 607.636C1735.08 610.642 1736.28 613.543 1737.78 616.291C1742.11 624.017 1748.13 630.45 1754.85 636.168C1769.39 648.503 1786.27 657.797 1804.47 663.502C1805.33 663.616 1806.18 663.795 1807.02 664.037ZM1938.59 561.749C1938.42 561.269 1938.23 560.799 1938.01 560.342C1935.14 554.898 1931.73 549.752 1927.85 544.978C1918 533.063 1905.98 523.129 1892.42 515.705C1883.24 510.653 1873.71 506.667 1863.37 504.811C1860 504.251 1856.59 504.008 1853.18 504.086C1851.02 504.176 1848.89 504.657 1846.9 505.505C1843.94 506.672 1842.91 509.16 1843.73 512.191C1844.12 513.656 1844.73 515.054 1845.54 516.341C1847.84 520.102 1850.78 523.44 1854.22 526.207C1859.29 530.599 1864.81 534.443 1870.69 537.677C1891.41 549.377 1913.64 556.959 1936.96 561.556C1937.5 561.65 1938.04 561.714 1938.59 561.749ZM1886.3 623.62C1886.23 623.022 1886.1 622.432 1885.92 621.857C1885.05 619.463 1884.38 616.996 1883.29 614.676C1877.04 600.749 1867.08 590.05 1854.26 582.002C1848.14 578.039 1841.31 575.311 1834.15 573.971C1830.84 573.293 1827.42 573.286 1824.11 573.951C1818.61 575.29 1816.32 579.065 1817.8 584.563C1818.72 587.557 1820.24 590.33 1822.28 592.712C1826.45 598.178 1831.87 602.355 1837.65 606.034C1852.04 615.194 1867.81 620.661 1884.53 623.434C1885.11 623.554 1885.7 623.616 1886.3 623.62V623.62ZM1964.63 475.373C1963.99 475.027 1963.56 474.75 1963.21 474.542C1949.06 468.278 1934.36 463.576 1918.99 461.569C1912.57 460.574 1906.05 460.463 1899.61 461.237C1896.67 461.612 1893.8 462.384 1891.08 463.532C1885.32 466.006 1884.66 470.257 1889.03 474.801C1891.83 477.571 1895.14 479.765 1898.79 481.26C1911.94 487.103 1926.44 489.274 1940.73 487.542C1946.08 486.997 1951.27 485.422 1956.02 482.902C1959.42 481.079 1962.37 478.504 1964.63 475.373V475.373Z" fill="#DEB47D"/>
<path d="M86.0001 759.659C86.7789 760.582 87.4091 761.338 88.1291 762.077C91.9785 765.627 96.6208 768.204 101.669 769.594C108.754 771.587 116.132 772.326 123.472 771.778C135.541 770.963 147.383 768.091 158.485 763.287C174.839 756.419 189.748 746.524 202.428 734.122C209.652 727.311 215.777 719.423 220.584 710.737C222.244 707.565 223.681 704.281 224.884 700.91C225.469 698.85 225.816 696.729 225.918 694.59C226.015 693.838 226.113 693.086 226.887 692.864C227.55 692.779 228.223 692.88 228.832 693.155C229.341 693.49 229.738 693.969 229.972 694.532C230.205 695.095 230.264 695.715 230.141 696.312C229.896 698.769 229.871 701.272 229.064 703.577C227.83 707.371 226.255 711.046 224.36 714.556C220.86 721.415 216.364 727.719 211.02 733.262C192.54 752.892 170.446 766.683 144.304 773.818C132.627 776.995 120.722 778.262 108.686 776.452C98.1566 774.841 88.738 771.251 81.6176 762.556C80.8075 762.989 80.1187 763.492 79.3993 763.908C70.5046 769.624 60.9753 774.286 51.0033 777.801C41.2488 781.164 31.2395 783.249 20.8845 782.628C17.6199 782.404 14.3819 781.887 11.2095 781.084C-4.08066 776.967 -12.7608 765.282 -12.6343 749.455C-12.4928 743.776 -11.5192 738.148 -9.74465 732.752C-6.38791 722.15 -1.11102 712.46 5.02818 703.256C6.7006 700.712 8.52656 698.325 10.2946 695.755C10.6692 695.232 10.9432 694.743 11.4542 693.976C10.4553 693.734 9.54876 693.477 8.76499 693.278C1.21559 691.705 -5.90909 688.532 -12.1294 683.974C-19.8399 678.459 -25.2161 670.266 -27.2069 660.997C-28.3412 655.407 -28.3341 649.646 -27.1857 644.058C-25.4538 635.059 -21.6166 626.916 -16.719 619.202C-16.0697 618.191 -15.4212 617.18 -14.6038 616.012C-15.4661 615.526 -16.3012 615.136 -17.0464 614.729C-24.7033 610.747 -30.829 605.201 -34.4366 597.171C-36.9739 591.441 -38.0238 585.164 -37.4889 578.92C-36.8719 570.931 -34.7254 563.134 -31.166 555.955C-26.3883 545.893 -20.0919 536.626 -12.4975 528.478C-11.959 527.807 -11.3249 527.111 -10.6217 526.293C-11.5797 525.832 -12.2926 525.513 -13.1276 525.123C-21.7947 521.589 -30.0906 517.206 -37.8936 512.037C-41.4516 509.593 -44.8666 506.946 -48.1219 504.111C-50.602 502.062 -52.626 499.517 -54.0639 496.639C-54.5801 495.805 -54.9056 494.867 -55.0172 493.892C-55.1288 492.917 -55.0236 491.93 -54.7093 491.001C-54.6013 491.053 -54.4872 491.092 -54.3695 491.116C-53.7191 494.148 -51.8352 496.425 -49.6859 498.52C-46.3793 501.654 -42.7182 504.392 -38.777 506.677C-28.8104 512.632 -18.3721 517.759 -7.56703 522.006C-7.2567 522.062 -6.9535 522.152 -6.66291 522.274C-6.1697 521.82 -5.57392 521.344 -5.00812 520.77C9.19969 507.338 25.9027 496.821 44.1562 489.815C53.8978 486.04 63.9907 483.518 74.4975 483.58C78.1737 483.559 81.8361 484.031 85.387 484.983C88.068 485.736 90.5926 486.963 92.8415 488.605C95.169 490.257 96.97 492.547 98.0279 495.198C99.0859 497.849 99.3559 500.749 98.8054 503.549C98.0145 507.674 96.2084 511.536 93.5504 514.787C88.2714 521.56 81.4709 526.993 73.7001 530.647C56.9006 539.01 37.6361 540.989 19.4871 536.217C12.1041 534.345 4.79263 531.624 -2.50351 529.306C-3.31203 529.012 -4.12555 528.727 -4.93407 528.433C-5.14769 528.548 -5.35429 528.676 -5.55283 528.815C-14.7855 538.473 -22.5804 549.18 -27.7028 561.626C-30.6073 568.679 -32.4345 575.834 -32.1401 583.544C-31.5804 596.268 -24.0285 606.506 -11.4134 611.48C-10.9432 610.932 -10.3091 610.235 -9.77062 609.565C0.725636 596.385 13.6834 585.372 28.3819 577.136C34.4874 573.626 41.0659 571.011 47.9156 569.373C51.8556 568.298 55.9655 567.99 60.0218 568.465C62.3253 568.734 64.5719 569.365 66.6792 570.334C71.4509 572.523 73.8314 576.946 73.4532 582.247C73.1275 585.193 72.1923 588.038 70.707 590.603C68.1656 594.978 64.8594 598.862 60.9456 602.069C51.9993 609.633 41.4411 615.051 30.079 617.907C17.3195 621.279 4.56947 621.747 -8.29961 618.093C-8.51821 618.047 -8.74093 618.011 -9.1764 617.921C-9.55096 618.444 -10.0246 618.991 -10.3957 619.515C-14.6843 625.636 -18.0468 632.356 -20.3747 639.458C-22.2004 644.947 -22.8655 650.756 -22.3279 656.516C-21.6172 664.245 -18.0427 671.428 -12.3066 676.655C-7.90021 680.892 -2.60188 684.089 3.20033 686.012C6.53331 687.151 9.95077 687.854 13.3255 688.775C13.9653 688.979 14.6548 688.963 15.2847 688.731C15.9146 688.498 16.4489 688.062 16.803 687.492C23.5661 679.197 30.9777 671.452 38.9678 664.331C51.0513 653.352 64.0589 643.472 78.5182 635.77C85.4594 631.918 92.9059 629.058 100.641 627.273C104.528 626.339 108.568 626.229 112.5 626.949C118.919 628.369 122.261 633.243 121.289 639.749C121.066 641.588 120.552 643.381 119.768 645.059C118.568 647.654 117.146 650.14 115.516 652.489C111.803 657.622 107.395 662.216 102.42 666.139C85.6145 680.154 65.4633 689.574 43.9323 693.478C35.8221 694.947 27.5548 695.348 19.3406 694.673C18.7991 694.544 18.2311 694.582 17.7122 694.784C17.1934 694.986 16.7481 695.341 16.4359 695.802C9.54202 704.904 3.24068 714.256 -1.40509 724.703C-4.17135 730.566 -6.13018 736.776 -7.22815 743.165C-7.89279 746.861 -7.9889 750.637 -7.51317 754.363C-6.2929 763.889 -1.29188 770.587 7.34067 774.705C13.5647 777.629 20.2097 778.359 26.9987 778.11C35.9604 777.631 44.777 775.644 53.0777 772.232C61.7173 768.825 69.9762 764.521 77.7188 759.393C78.1675 759.147 78.5688 758.823 78.9042 758.437C78.8086 757.911 78.6642 757.394 78.4726 756.895C76.2041 751.556 75.5614 745.666 76.6252 739.963C77.2571 736.106 78.2447 732.316 79.5754 728.641C85.4199 713.535 95.5921 700.489 108.818 691.138C111.891 688.848 115.338 687.107 119.005 685.992C120.161 685.666 121.317 685.34 122.5 685.111C129.869 683.973 134.794 688.202 135.202 695.563C135.276 698.601 134.787 701.627 133.76 704.488C132.241 709.054 130.15 713.411 127.536 717.452C121.033 727.762 113.033 737.048 103.799 745.005C98.737 749.542 93.2278 753.578 87.9861 757.861C87.4512 758.587 86.7758 759.199 86.0001 759.659ZM-1.14831 524.88C1.62211 525.868 4.05182 526.74 6.57301 527.595C14.7074 530.293 22.8836 532.774 31.4247 533.594C47.8468 535.108 63.2792 532.021 77.3995 523.488C82.6811 520.44 87.2182 516.256 90.682 511.238C92.4663 508.856 93.6819 506.098 94.2358 503.174C94.8858 498.838 93.6648 495.235 89.9532 492.746C88.184 491.491 86.2011 490.569 84.1014 490.026C81.0616 489.28 77.9499 488.866 74.8209 488.79C65.965 488.677 57.3839 490.674 49.0719 493.634C31.1158 500.066 14.6306 510.03 0.59002 522.939C0.0603218 523.629 -0.520777 524.278 -1.14831 524.88ZM21.6507 689.967C22.1489 690.065 22.6527 690.132 23.1592 690.169C29.3096 690.403 35.4681 690.029 41.5448 689.052C56.7876 686.481 71.4026 681.035 84.611 673.005C93.5762 667.581 101.793 661.321 108.57 653.294C110.739 650.658 112.655 647.825 114.293 644.832C115.297 642.914 115.944 640.831 116.204 638.683C116.674 635.537 115.034 633.401 111.999 632.595C110.532 632.207 109.017 632.036 107.5 632.088C103.089 632.205 98.7312 633.079 94.616 634.672C88.277 636.868 82.1872 639.727 76.4477 643.2C55.9552 655.294 38.274 670.755 22.6328 688.652C22.2822 689.073 21.9543 689.512 21.6507 689.967ZM-5.78611 613.747C-5.23263 613.985 -4.65778 614.17 -4.06931 614.3C-1.56104 614.743 0.910417 615.396 3.4646 615.613C18.6507 617.163 32.8963 613.887 46.2761 606.809C52.7657 603.494 58.5443 598.942 63.2861 593.409C65.5296 590.88 67.2426 587.927 68.3235 584.724C69.9139 579.291 67.7896 575.42 62.2882 573.953C59.235 573.254 56.0708 573.188 52.991 573.758C46.1723 574.637 39.8449 577.242 33.7688 580.408C18.641 588.29 6.02138 599.214 -4.74011 612.307C-5.13514 612.752 -5.48544 613.234 -5.78611 613.747V613.747ZM83.4345 755.707C84.0542 755.325 84.5091 755.091 84.8642 754.892C97.364 745.77 108.786 735.391 118.209 723.083C122.278 718.026 125.635 712.434 128.187 706.466C129.33 703.737 130.096 700.866 130.464 697.931C131.202 691.706 127.85 689.009 121.73 690.521C117.931 691.562 114.373 693.336 111.256 695.744C99.6184 704.216 90.4919 715.682 84.8459 728.924C82.6437 733.828 81.4121 739.113 81.2192 744.486C81.0958 748.346 81.8534 752.183 83.4345 755.707V755.707Z" fill="#DEB47D"/>
</g>
<defs>
<clipPath id="clip0_13_2">
<rect width="1920" height="858" fill="white"/>
</clipPath>
</defs>
</svg>
