<svg xmlns="http://www.w3.org/2000/svg" width="152.068" height="20.709" viewBox="0 0 152.068 20.709">
  <g id="Group_6258" data-name="Group 6258" transform="translate(-909 -3027)">
    <path id="Icon_awesome-star" data-name="Icon awesome-star" d="M11.1.719,8.458,6.074l-5.909.861a1.3,1.3,0,0,0-.716,2.208l4.275,4.165L5.1,19.193a1.293,1.293,0,0,0,1.876,1.363l5.286-2.778,5.286,2.778a1.294,1.294,0,0,0,1.876-1.363l-1.011-5.884,4.275-4.165a1.3,1.3,0,0,0-.716-2.208l-5.909-.861L13.42.719a1.3,1.3,0,0,0-2.321,0Z" transform="translate(907.559 3027.001)" fill="#f5a622"/>
    <path id="Icon_awesome-star-2" data-name="Icon awesome-star" d="M11.1.719,8.458,6.074l-5.909.861a1.3,1.3,0,0,0-.716,2.208l4.275,4.165L5.1,19.193a1.293,1.293,0,0,0,1.876,1.363l5.286-2.778,5.286,2.778a1.294,1.294,0,0,0,1.876-1.363l-1.011-5.884,4.275-4.165a1.3,1.3,0,0,0-.716-2.208l-5.909-.861L13.42.719a1.3,1.3,0,0,0-2.321,0Z" transform="translate(940.167 3027.001)" fill="#f5a622"/>
    <path id="Icon_awesome-star-3" data-name="Icon awesome-star" d="M11.1.719,8.458,6.074l-5.909.861a1.3,1.3,0,0,0-.716,2.208l4.275,4.165L5.1,19.193a1.293,1.293,0,0,0,1.876,1.363l5.286-2.778,5.286,2.778a1.294,1.294,0,0,0,1.876-1.363l-1.011-5.884,4.275-4.165a1.3,1.3,0,0,0-.716-2.208l-5.909-.861L13.42.719a1.3,1.3,0,0,0-2.321,0Z" transform="translate(972.774 3027.001)" fill="#f5a622"/>
    <path id="Icon_awesome-star-4" data-name="Icon awesome-star" d="M11.1.719,8.458,6.074l-5.909.861a1.3,1.3,0,0,0-.716,2.208l4.275,4.165L5.1,19.193a1.293,1.293,0,0,0,1.876,1.363l5.286-2.778,5.286,2.778a1.294,1.294,0,0,0,1.876-1.363l-1.011-5.884,4.275-4.165a1.3,1.3,0,0,0-.716-2.208l-5.909-.861L13.42.719a1.3,1.3,0,0,0-2.321,0Z" transform="translate(1005.382 3027.001)" fill="#f5a622"/>
    <path id="Icon_awesome-star-5" data-name="Icon awesome-star" d="M11.1.719,8.458,6.074l-5.909.861a1.3,1.3,0,0,0-.716,2.208l4.275,4.165L5.1,19.193a1.293,1.293,0,0,0,1.876,1.363l5.286-2.778,5.286,2.778a1.294,1.294,0,0,0,1.876-1.363l-1.011-5.884,4.275-4.165a1.3,1.3,0,0,0-.716-2.208l-5.909-.861L13.42.719a1.3,1.3,0,0,0-2.321,0Z" transform="translate(1037.99 3027.001)" fill="#f5a622"/>
  </g>
</svg>
